<svg width="32" height="35" viewBox="0 0 32 35" fill="none" xmlns="http://www.w3.org/2000/svg">
<path d="M9.71996 24.6862C3.69425 26.36 1.85306 29.2054 1.01616 30.7119C0.84878 31.5489 0.84878 32.8877 1.01616 34.0594C1.5183 38.4113 15.2435 38.2439 16.4152 38.2439C17.5869 38.2439 31.9816 37.2396 31.9816 34.3941C31.9816 31.5487 31.8142 29.8748 29.8056 27.8663C27.7971 25.8577 21.9388 24.3513 20.9345 23.8491C19.9302 23.347 20.4323 21.6732 20.7671 21.3384C21.1018 21.0037 22.7757 17.9908 22.7757 17.4888C24.9516 15.4803 24.9516 12.6346 24.1147 11.7978C25.119 6.27439 24.1147 4.76774 23.6126 3.59607C23.1104 2.42441 20.9345 0.917979 19.5954 1.42024C13.4023 -2.5969 9.55258 2.92666 8.71567 5.43737C7.87877 7.94809 8.54829 10.7936 8.88306 11.7978C7.04187 13.3043 9.88734 16.8193 10.3895 17.4888C10.5569 18.3257 10.8916 19.4974 11.3938 20.1669C11.8959 20.8364 12.3981 21.8407 12.5654 22.1754C12.2307 23.1797 12.2307 23.8493 9.71996 24.6862Z" fill="url(#paint0_linear_14502_2431)"/>
<defs>
<linearGradient id="paint0_linear_14502_2431" x1="16.4361" y1="0" x2="16.4361" y2="38.2447" gradientUnits="userSpaceOnUse">
<stop stop-color="#323232"/>
<stop offset="1"/>
</linearGradient>
</defs>
</svg>
