<svg width="25" height="24" viewBox="0 0 25 24" fill="none" xmlns="http://www.w3.org/2000/svg">
<path d="M9.33203 21H15.332M12.332 3C9.01832 3 6.33203 5.68629 6.33203 9C6.33203 10.2145 6.69287 11.3447 7.3132 12.2893C8.2671 13.7418 8.74364 14.4676 8.80555 14.5761C9.35631 15.541 9.2549 15.2007 9.32422 16.3096C9.33201 16.4342 9.33203 16.6229 9.33203 17C9.33203 17.5523 9.77975 18 10.332 18L14.332 18C14.8843 18 15.332 17.5523 15.332 17C15.332 16.6229 15.332 16.4342 15.3398 16.3096C15.4091 15.2007 15.3071 15.541 15.8579 14.5761C15.9198 14.4676 16.3972 13.7418 17.3511 12.2893C17.9714 11.3447 18.3322 10.2145 18.3322 9C18.3322 5.68629 15.6457 3 12.332 3Z" stroke="#FF626A" stroke-width="2" stroke-linecap="round" stroke-linejoin="round"/>
</svg>
