<svg width="25" height="24" viewBox="0 0 25 24" fill="none" xmlns="http://www.w3.org/2000/svg">
<path d="M19.668 14L18.8643 19.6263C18.7947 20.1134 18.7597 20.3573 18.6421 20.5405C18.5385 20.7019 18.3907 20.8299 18.2163 20.9097C18.0186 21 17.7731 21 17.2827 21H14.668M19.668 14H14.668M19.668 14C20.9711 13.3956 21.6679 11.7637 21.6679 10.3335C21.6679 8.79807 20.6385 7.48314 19.1777 6.93701C18.865 6.8201 18.668 6.51809 18.668 6.2085C18.668 4.94284 17.5487 3.9165 16.168 3.9165C15.9417 3.9165 15.7226 3.94406 15.5142 3.99571C15.082 4.1028 14.5985 4.0791 14.2266 3.85059C13.352 3.31321 12.2999 3 11.168 3C8.1304 3 5.66797 5.25723 5.66797 8.04167C5.66797 8.39362 5.43885 8.71567 5.11084 8.8986C4.24569 9.38108 3.66797 10.254 3.66797 11.2502C3.66797 12.5275 4.38025 13.6908 5.66797 14M5.66797 14L6.47172 19.6263L6.47184 19.6276C6.54132 20.1139 6.5761 20.3574 6.69358 20.5405C6.79719 20.7019 6.94516 20.8299 7.11963 20.9097C7.31729 21 7.56282 21 8.05325 21H10.668M5.66797 14H10.668M10.668 14H14.668M10.668 14V21M14.668 14V21M14.668 21H10.668" stroke="#FFE27B" stroke-width="2" stroke-linecap="round" stroke-linejoin="round"/>
</svg>
