<svg width="25" height="24" viewBox="0 0 25 24" fill="none" xmlns="http://www.w3.org/2000/svg">
<path d="M4.08631 13.7788C5.86575 15.5478 8.96904 17.9999 12.4997 17.9999C16.0303 17.9999 19.1331 15.5478 20.9125 13.7788C21.3818 13.3123 21.6172 13.0782 21.7667 12.6201C21.8733 12.2933 21.8733 11.7067 21.7667 11.3799C21.6172 10.9218 21.3818 10.6877 20.9125 10.2211C19.133 8.45208 16.0303 6 12.4997 6C8.96904 6 5.86575 8.45208 4.08631 10.2211C3.61665 10.688 3.3818 10.9216 3.23231 11.3799C3.12569 11.7067 3.12569 12.2933 3.23231 12.6201C3.3818 13.0784 3.61665 13.3119 4.08631 13.7788Z" stroke="white" stroke-width="1.5" stroke-linecap="round" stroke-linejoin="round"/>
<path d="M10.4995 12C10.4995 13.1046 11.3949 14 12.4995 14C13.6041 14 14.4995 13.1046 14.4995 12C14.4995 10.8954 13.6041 10 12.4995 10C11.3949 10 10.4995 10.8954 10.4995 12Z" stroke="white" stroke-width="1.5" stroke-linecap="round" stroke-linejoin="round"/>
</svg>
