<svg width="68" height="73" viewBox="0 0 68 73" fill="none" xmlns="http://www.w3.org/2000/svg">
<defs>
<linearGradient id="paint0_linear_548_9304" x1="13.0877" y1="26.8679" x2="22.1143" y2="59.2316" gradientUnits="userSpaceOnUse">
<stop stop-color="white"/>
<stop offset="1" stop-color="white" stop-opacity="0"/>
</linearGradient>
<linearGradient id="paint1_linear_548_9304" x1="8.79701" y1="28.351" x2="17.9024" y2="60.9972" gradientUnits="userSpaceOnUse">
<stop stop-color="white"/>
<stop offset="1" stop-color="white" stop-opacity="0"/>
</linearGradient>
<linearGradient id="paint2_linear_548_9304" x1="18.774" y1="4.6007" x2="18.774" y2="40.8682" gradientUnits="userSpaceOnUse">
<stop stop-color="white"/>
<stop offset="1" stop-color="white" stop-opacity="0"/>
</linearGradient>
<linearGradient id="paint3_linear_548_9304" x1="17.068" y1="0.772532" x2="17.068" y2="53.5252" gradientUnits="userSpaceOnUse">
<stop stop-color="white"/>
<stop offset="1" stop-color="white" stop-opacity="0"/>
</linearGradient>
<linearGradient id="paint4_linear_548_9304" x1="55.1096" y1="26.8679" x2="46.083" y2="59.2316" gradientUnits="userSpaceOnUse">
<stop stop-color="white"/>
<stop offset="1" stop-color="white" stop-opacity="0"/>
</linearGradient>
<linearGradient id="paint5_linear_548_9304" x1="59.4003" y1="28.351" x2="50.2948" y2="60.9972" gradientUnits="userSpaceOnUse">
<stop stop-color="white"/>
<stop offset="1" stop-color="white" stop-opacity="0"/>
</linearGradient>
<linearGradient id="paint6_linear_548_9304" x1="48.5205" y1="3.48222" x2="48.5205" y2="44.6984" gradientUnits="userSpaceOnUse">
<stop stop-color="white"/>
<stop offset="1" stop-color="white" stop-opacity="0"/>
</linearGradient>
<linearGradient id="paint7_linear_548_9304" x1="51.1293" y1="0.772532" x2="51.1293" y2="53.5252" gradientUnits="userSpaceOnUse">
<stop stop-color="white"/>
<stop offset="1" stop-color="white" stop-opacity="0"/>
</linearGradient>
<linearGradient id="paint8_linear_548_9304" x1="46.9682" y1="-1.26998" x2="46.9682" y2="15.0783" gradientUnits="userSpaceOnUse">
<stop stop-color="white"/>
<stop offset="1" stop-color="white" stop-opacity="0"/>
</linearGradient>
</defs>
<g opacity="0.4">
<path d="M50.6371 46.2744C50.5982 46.336 50.5561 46.3975 50.5156 46.4591" stroke="white" stroke-width="0.615488" stroke-linecap="round" stroke-linejoin="round"/>
</g>
<path d="M14.3986 29.9054C13.9462 28.7497 13.6017 28.0893 13.4408 28.1342C13.0373 28.2467 13.942 32.7541 15.4614 38.2016C16.9807 43.6492 18.5395 47.9741 18.943 47.8615C19.0791 47.8236 19.0664 47.2855 18.9314 46.38" stroke="url(#paint0_linear_548_9304)" stroke-width="1.05586" stroke-linecap="round" stroke-linejoin="round"/>
<path d="M8.88875 29.0315C6.50435 31.2456 6.21709 35.2485 7.74974 40.7436C9.2824 46.2388 12.3951 50.1718 14.7021 49.5284L18.0856 48.277" stroke="url(#paint1_linear_548_9304)" stroke-width="1.05586" stroke-linecap="round" stroke-linejoin="round"/>
<path d="M13.0706 28.0115C12.2531 27.5022 11.4355 27.6497 11.4355 26.3171C11.4355 20.8435 13.6505 13.7197 19.6106 9.27686" stroke="url(#paint2_linear_548_9304)" stroke-width="1.05586" stroke-linecap="round" stroke-linejoin="round"/>
<path d="M6.67188 34.8245C7.0125 28.1255 9.38001 30.6602 9.38001 25.636C9.38001 19.8552 11.7917 12.361 18.2533 7.57422" stroke="url(#paint3_linear_548_9304)" stroke-width="1.05586" stroke-linecap="round" stroke-linejoin="round"/>
<path d="M53.7987 29.9054C54.2511 28.7497 54.5956 28.0893 54.7564 28.1342C55.1599 28.2467 54.2553 32.7541 52.7359 38.2016C51.2165 43.6492 49.6577 47.9741 49.2542 47.8615C49.1181 47.8236 49.1309 47.2855 49.2659 46.38" stroke="url(#paint4_linear_548_9304)" stroke-width="1.05586" stroke-linecap="round" stroke-linejoin="round"/>
<path d="M59.3085 29.0315C61.6929 31.2456 61.9802 35.2485 60.4475 40.7436C58.9149 46.2388 55.8022 50.1718 53.4952 49.5284L50.1117 48.277" stroke="url(#paint5_linear_548_9304)" stroke-width="1.05586" stroke-linecap="round" stroke-linejoin="round"/>
<path d="M55.1267 28.0115C55.9442 27.5022 56.7617 27.6497 56.7617 26.3171C56.7617 20.8435 54.5468 13.7197 48.5866 9.27686" stroke="url(#paint6_linear_548_9304)" stroke-width="1.05586" stroke-linecap="round" stroke-linejoin="round"/>
<path d="M61.5254 34.8245C61.1848 28.1255 58.8173 30.6602 58.8173 25.636C58.8173 19.8552 56.4055 12.361 49.944 7.57422" stroke="url(#paint7_linear_548_9304)" stroke-width="1.05586" stroke-linecap="round" stroke-linejoin="round"/>
<path d="M18.2107 5.98275L18.3995 6.20687H18.3995L18.2107 5.98275ZM31.8157 0.881479L31.8106 0.58852L31.8157 0.881479ZM18.0871 6.85104L17.8433 7.01357L17.8433 7.01357L18.0871 6.85104ZM19.6447 9.1874L19.8885 9.02487L19.6447 9.1874ZM19.9442 9.24537L19.7786 9.00362L19.9442 9.24537ZM31.5471 5.38946L31.535 5.0967L31.5471 5.38946ZM34.1251 5.28304L34.1372 4.99029C34.1292 4.98995 34.1211 4.98995 34.113 4.99029L34.1251 5.28304ZM36.7032 5.38946L36.7153 5.0967L36.7032 5.38946ZM48.3061 9.24537L48.4716 9.00362V9.00362L48.3061 9.24537ZM48.6056 9.1874L48.3618 9.02487L48.3618 9.02487L48.6056 9.1874ZM50.1632 6.85104L50.4069 7.01357V7.01357L50.1632 6.85104ZM50.0395 5.98275L50.2282 5.75863V5.75863L50.0395 5.98275ZM36.4345 0.881479L36.4397 0.58852L36.4345 0.881479ZM34.2959 0.843895H34.0029C34.0029 1.00371 34.131 1.13405 34.2908 1.13685L34.2959 0.843895ZM34.2959 0.837891H34.589C34.589 0.759288 34.5574 0.683982 34.5013 0.628893C34.4452 0.573803 34.3694 0.54355 34.2908 0.544931L34.2959 0.837891ZM34.1251 0.840893L34.12 1.13403L34.1303 1.13385L34.1251 0.840893ZM33.9543 0.837891L33.9594 0.544931C33.8809 0.54355 33.805 0.573803 33.7489 0.628893C33.6929 0.683982 33.6613 0.759288 33.6613 0.837891H33.9543ZM33.9543 0.843895L33.9594 1.13685C34.1192 1.13405 34.2473 1.00371 34.2473 0.843895H33.9543ZM18.3995 6.20687C22.1626 3.03791 26.9019 1.26089 31.8209 1.17444L31.8106 0.58852C26.757 0.677332 21.8881 2.50297 18.022 5.75863L18.3995 6.20687ZM18.3309 6.68851C18.2278 6.53391 18.2574 6.32656 18.3995 6.20687L18.022 5.75863C17.6517 6.07047 17.5748 6.61075 17.8433 7.01357L18.3309 6.68851ZM19.8885 9.02487L18.3309 6.68851L17.8433 7.01357L19.4009 9.34993L19.8885 9.02487ZM19.7786 9.00362C19.8148 8.97887 19.8642 8.98843 19.8885 9.02487L19.4009 9.34993C19.5577 9.58514 19.8765 9.64685 20.1097 9.48713L19.7786 9.00362ZM31.535 5.0967C27.3273 5.27039 23.2533 6.62427 19.7786 9.00362L20.1097 9.48713C23.4937 7.1699 27.4613 5.85137 31.5592 5.68222L31.535 5.0967ZM34.113 4.99029L31.535 5.0967L31.5592 5.68222L34.1372 5.5758L34.113 4.99029ZM34.113 5.5758L36.6911 5.68222L36.7153 5.0967L34.1372 4.99029L34.113 5.5758ZM36.6911 5.68222C40.7889 5.85137 44.7565 7.1699 48.1405 9.48713L48.4716 9.00362C44.9969 6.62427 40.9229 5.27039 36.7153 5.0967L36.6911 5.68222ZM48.1405 9.48713C48.3738 9.64685 48.6926 9.58514 48.8494 9.34993L48.3618 9.02487C48.3861 8.98843 48.4355 8.97887 48.4716 9.00362L48.1405 9.48713ZM48.8494 9.34993L50.4069 7.01357L49.9194 6.68851L48.3618 9.02487L48.8494 9.34993ZM50.4069 7.01357C50.6755 6.61075 50.5986 6.07047 50.2282 5.75863L49.8508 6.20687C49.9929 6.32656 50.0224 6.53391 49.9194 6.68851L50.4069 7.01357ZM50.2282 5.75863C46.3621 2.50297 41.4932 0.677332 36.4397 0.58852L36.4294 1.17444C41.3483 1.26089 46.0876 3.03791 49.8508 6.20687L50.2282 5.75863ZM36.4397 0.58852L34.3011 0.550936L34.2908 1.13685L36.4294 1.17444L36.4397 0.58852ZM34.0029 0.837891V0.843895H34.589V0.837891H34.0029ZM34.1303 1.13385L34.3011 1.13085L34.2908 0.544931L34.12 0.547933L34.1303 1.13385ZM34.1303 0.547933L33.9594 0.544931L33.9492 1.13085L34.12 1.13385L34.1303 0.547933ZM33.6613 0.837891V0.843895H34.2473V0.837891H33.6613ZM31.8209 1.17444L33.9594 1.13685L33.9492 0.550936L31.8106 0.58852L31.8209 1.17444Z" fill="url(#paint8_linear_548_9304)"/>
</svg>
