<svg width="109" height="108" viewBox="0 0 109 108" fill="none" xmlns="http://www.w3.org/2000/svg">
<path d="M28.5276 49.6938L28.7967 50.4168L28.5276 49.6938L28.5275 49.6938L28.5271 49.694L28.5257 49.6945L28.5198 49.6967L28.497 49.7052L28.4104 49.7374L28.1 49.8531C27.8424 49.949 27.4972 50.0777 27.1468 50.2085C26.9719 50.2738 26.7935 50.3405 26.623 50.4043C26.467 46.7115 26.8961 43.3061 27.5055 40.5752C28.0504 38.1335 28.7284 36.2788 29.234 35.2509C30.4724 35.8207 32.505 36.7386 34.3875 37.5379C33.7168 38.9755 33.2218 40.9636 32.8719 42.8473C32.4929 44.8876 32.2647 46.9191 32.1848 48.2356C31.9947 48.3476 31.7614 48.4927 31.5378 48.6344C31.3048 48.7821 31.0757 48.9301 30.9054 49.041C30.8402 49.0834 30.7834 49.1205 30.7381 49.1502L30.049 49.3085L30.0418 49.3101L30.0345 49.3119L28.6095 49.6684L28.5679 49.6788L28.5276 49.6938Z" stroke="white" stroke-width="1.54291"/>
<path d="M80.6981 54.8603C81.676 55.5472 82.7975 56.3824 83.9083 57.3158C85.5798 52.6949 87.2415 46.4945 88.2355 42.7856C88.4691 41.9142 88.6658 41.1802 88.817 40.6367C87.6223 40.0763 85.658 39.1381 83.8494 38.2256C83.3778 40.4037 82.5145 43.4679 81.5586 46.2824C80.9997 47.928 80.4033 49.5058 79.8272 50.7841C79.5393 51.423 79.2517 51.9978 78.9714 52.4735C78.8255 52.7211 78.6735 52.9559 78.5159 53.1644C78.5166 53.1655 78.5173 53.1667 78.518 53.1678C78.6479 53.3737 78.833 53.6032 79.1111 53.7851L78.689 54.4308L79.1111 53.7851C79.5669 54.0831 80.1071 54.4452 80.6981 54.8603Z" stroke="white" stroke-width="1.54291"/>
<path d="M35.9274 37.5229C35.8409 37.6771 35.7643 37.8155 35.6978 37.9369C35.5959 37.8999 35.4829 37.8585 35.3599 37.813C34.7633 37.5922 33.9342 37.2749 33.0054 36.8889C31.3327 36.1939 29.3789 35.2936 27.8737 34.3493C31.3674 25.9498 37.8558 18.1804 45.9007 13.6203C54.1103 8.96686 63.9237 7.65877 73.8903 12.3988C88.1144 19.1636 89.9083 33.7312 89.1453 40.7919L79.0582 35.7846C79.4959 32.5255 79.2546 27.8837 77.1449 23.8708C74.8769 19.5568 70.4939 16.0625 62.7808 15.7525C54.9427 15.4375 48.0578 21.2967 43.2328 26.9807C40.7971 29.8501 38.8362 32.7343 37.4849 34.8988C36.8088 35.982 36.284 36.8871 35.9274 37.5229Z" stroke="white" stroke-width="1.54291"/>
<path d="M84.8673 81.147C81.9634 85.9381 77.9363 89.3916 73.8054 91.1224C69.6737 92.8535 65.4974 92.8446 62.1828 90.8356C58.8683 88.8266 56.9281 85.1283 56.5512 80.6645C56.1744 76.2015 57.3729 71.0336 60.2769 66.2425C63.1808 61.4514 67.2079 57.9978 71.3387 56.267C75.4704 54.5359 79.6468 54.5449 82.9613 56.5538C86.2759 58.5628 88.2161 62.2612 88.5929 66.725C88.9697 71.1879 87.7712 76.3558 84.8673 81.147Z" stroke="white" stroke-width="1.54291"/>
<path d="M50.9635 59.0592C46.6003 49.9352 38.8094 45.487 33.4117 47.9746C27.833 50.5457 26.9139 59.6117 31.1888 69.3009C35.1728 78.3306 42.3465 83.4613 47.8247 82.1045" stroke="white" stroke-width="1.54291"/>
<path d="M83.2408 56.7517C82.5968 56.1009 78.4205 53.1414 77.621 52.6568C70.4661 48.3202 59.8356 52.7743 53.8769 62.6053C47.9182 72.4363 48.8879 83.9214 56.0427 88.258C57.4424 89.1063 62.855 91.2235 62.855 91.2235" stroke="white" stroke-width="1.54291"/>
<path d="M34.4384 47.6687C33.7133 47.7769 28.6867 49.5527 28.0106 49.8643C21.9603 52.6527 20.5212 62.7677 24.7962 72.457C29.0711 82.1462 37.4413 87.7404 43.4916 84.952C44.6751 84.4066 47.9032 81.9481 47.9032 81.9481" stroke="white" stroke-width="1.54291"/>
<path d="M79.3353 54.5686C78.3532 52.4225 72.7692 49.2124 70.5701 48.5403C65.4734 46.9826 56.0279 51.2289 50.2163 59.8635C44.4502 68.4306 44.3188 81.9127 51.8132 86.4549C53.4069 87.4209 56.6252 88.6033 56.6252 88.6033" stroke="white" stroke-width="1.54291"/>
<path d="M31.3237 49.4045C29.2642 49.0086 22.7687 51.8431 21.1904 53.1436C17.5327 56.1576 15.9889 65.5178 19.4585 74.4632C22.9008 83.3386 32.371 89.512 37.9442 87.5217C43.5174 85.5314 43.7119 84.8436 43.7119 84.8436" stroke="white" stroke-width="1.54291"/>
<defs>
<linearGradient id="paint0_linear_12163_50356" x1="30.8352" y1="34.2372" x2="31.9005" y2="58.1785" gradientUnits="userSpaceOnUse">
<stop stop-color="#8F8F8F"/>
<stop offset="1" stop-color="white"/>
</linearGradient>
<linearGradient id="paint1_linear_12163_50356" x1="90.405" y1="41.8061" x2="71.9773" y2="56.5351" gradientUnits="userSpaceOnUse">
<stop stop-color="#8F8F8F"/>
<stop offset="1" stop-color="white"/>
</linearGradient>
<linearGradient id="paint2_linear_12163_50356" x1="60.4805" y1="6.55548" x2="61.1863" y2="57.1653" gradientUnits="userSpaceOnUse">
<stop stop-color="#8F8F8F"/>
<stop offset="1" stop-color="white"/>
</linearGradient>
<linearGradient id="paint3_linear_12163_50356" x1="85.536" y1="54.1478" x2="54.7496" y2="109.368" gradientUnits="userSpaceOnUse">
<stop stop-color="#8F8F8F"/>
<stop offset="1" stop-color="white"/>
</linearGradient>
<linearGradient id="paint4_linear_12163_50356" x1="33.2115" y1="44.5994" x2="59.9368" y2="96.2666" gradientUnits="userSpaceOnUse">
<stop stop-color="#8F8F8F"/>
<stop offset="1" stop-color="white"/>
</linearGradient>
<linearGradient id="paint5_linear_12163_50356" x1="79.7957" y1="50.9105" x2="49.0094" y2="106.131" gradientUnits="userSpaceOnUse">
<stop stop-color="#8F8F8F"/>
<stop offset="1" stop-color="white"/>
</linearGradient>
<linearGradient id="paint6_linear_12163_50356" x1="27.7264" y1="47.3373" x2="54.2743" y2="99.1098" gradientUnits="userSpaceOnUse">
<stop stop-color="#8F8F8F"/>
<stop offset="1" stop-color="white"/>
</linearGradient>
<linearGradient id="paint7_linear_12163_50356" x1="76.7753" y1="47.1119" x2="44.4791" y2="105.302" gradientUnits="userSpaceOnUse">
<stop stop-color="#8F8F8F"/>
<stop offset="1" stop-color="white"/>
</linearGradient>
<linearGradient id="paint8_linear_12163_50356" x1="23.2041" y1="47.7143" x2="51.0386" y2="102.283" gradientUnits="userSpaceOnUse">
<stop stop-color="#8F8F8F"/>
<stop offset="1" stop-color="white"/>
</linearGradient>
</defs>
</svg>
