<svg width="170" height="186" viewBox="0 0 170 186" fill="none" xmlns="http://www.w3.org/2000/svg">
<defs>
<linearGradient id="paint0_linear_555_3440" x1="48.8797" y1="103.583" x2="48.8797" y2="165.358" gradientUnits="userSpaceOnUse">
<stop stop-color="white"/>
<stop offset="1" stop-color="white" stop-opacity="0"/>
</linearGradient>
<linearGradient id="paint1_linear_555_3440" x1="48.2056" y1="126.009" x2="48.2056" y2="139.904" gradientUnits="userSpaceOnUse">
<stop stop-color="white"/>
<stop offset="1" stop-color="white" stop-opacity="0"/>
</linearGradient>
<linearGradient id="paint2_linear_555_3440" x1="122.023" y1="126.009" x2="122.023" y2="139.904" gradientUnits="userSpaceOnUse">
<stop stop-color="white"/>
<stop offset="1" stop-color="white" stop-opacity="0"/>
</linearGradient>
<linearGradient id="paint3_linear_555_3440" x1="120.97" y1="103.583" x2="120.97" y2="165.358" gradientUnits="userSpaceOnUse">
<stop stop-color="white"/>
<stop offset="1" stop-color="white" stop-opacity="0"/>
</linearGradient>
<linearGradient id="paint4_linear_555_3440" x1="31.1277" y1="68.3706" x2="54.142" y2="150.886" gradientUnits="userSpaceOnUse">
<stop stop-color="white"/>
<stop offset="1" stop-color="white" stop-opacity="0"/>
</linearGradient>
<linearGradient id="paint5_linear_555_3440" x1="20.1789" y1="72.1611" x2="43.3942" y2="155.397" gradientUnits="userSpaceOnUse">
<stop stop-color="white"/>
<stop offset="1" stop-color="white" stop-opacity="0"/>
</linearGradient>
<linearGradient id="paint6_linear_555_3440" x1="45.634" y1="11.603" x2="45.634" y2="104.071" gradientUnits="userSpaceOnUse">
<stop stop-color="white"/>
<stop offset="1" stop-color="white" stop-opacity="0"/>
</linearGradient>
<linearGradient id="paint7_linear_555_3440" x1="41.2736" y1="1.84238" x2="41.2736" y2="136.342" gradientUnits="userSpaceOnUse">
<stop stop-color="white"/>
<stop offset="1" stop-color="white" stop-opacity="0"/>
</linearGradient>
<linearGradient id="paint8_linear_555_3440" x1="138.24" y1="68.3706" x2="115.225" y2="150.886" gradientUnits="userSpaceOnUse">
<stop stop-color="white"/>
<stop offset="1" stop-color="white" stop-opacity="0"/>
</linearGradient>
<linearGradient id="paint9_linear_555_3440" x1="149.18" y1="72.1611" x2="125.965" y2="155.397" gradientUnits="userSpaceOnUse">
<stop stop-color="white"/>
<stop offset="1" stop-color="white" stop-opacity="0"/>
</linearGradient>
<linearGradient id="paint10_linear_555_3440" x1="121.424" y1="8.75128" x2="121.424" y2="113.837" gradientUnits="userSpaceOnUse">
<stop stop-color="white"/>
<stop offset="1" stop-color="white" stop-opacity="0"/>
</linearGradient>
<linearGradient id="paint11_linear_555_3440" x1="128.086" y1="1.84238" x2="128.086" y2="136.342" gradientUnits="userSpaceOnUse">
<stop stop-color="white"/>
<stop offset="1" stop-color="white" stop-opacity="0"/>
</linearGradient>
<linearGradient id="paint12_linear_555_3440" x1="117.479" y1="-3.37428" x2="117.479" y2="38.3076" gradientUnits="userSpaceOnUse">
<stop stop-color="white"/>
<stop offset="1" stop-color="white" stop-opacity="0"/>
</linearGradient>
</defs>
<g opacity="0.4">
<path d="M53.022 165.358C55.812 144.305 52.6014 122.892 43.7598 103.583" stroke="url(#paint0_linear_555_3440)" stroke-width="2.29875" stroke-linecap="round" stroke-linejoin="round"/>
<path fill-rule="evenodd" clip-rule="evenodd" d="M119.548 29.8004C111.691 22.3514 101.271 18.2066 90.4439 18.2231L90.4421 18.2231H85.1331H84.8647H79.5004L79.4986 18.2231C68.6715 18.2066 58.252 22.3514 50.3946 29.8004L50.3916 29.8032C42.3989 37.3277 37.6495 47.6684 37.1498 58.6344L37.1497 58.6381C37.1176 59.2965 37.1015 59.9591 37.1015 60.6261V80.4471C37.1015 81.0819 36.5869 81.5965 35.9521 81.5965C35.3173 81.5965 34.8027 81.0819 34.8027 80.4471V60.6261C34.8027 59.9228 34.8197 59.2234 34.8536 58.528C35.3809 46.9665 40.388 36.0643 48.8145 28.1308C57.0995 20.2771 68.0854 15.9072 79.5013 15.9244H84.8647H85.1331H90.4412C101.857 15.9072 112.843 20.2772 121.128 28.1309C129.555 36.0644 134.562 46.9665 135.089 58.528C135.123 59.2234 135.14 59.9228 135.14 60.6261V80.4471C135.14 81.0819 134.625 81.5965 133.99 81.5965C133.356 81.5965 132.841 81.0819 132.841 80.4471V60.6261C132.841 59.9591 132.825 59.2965 132.793 58.6381L132.793 58.6344C132.293 47.6684 127.544 37.3277 119.551 29.8032L119.548 29.8004Z" fill="white"/>
<path d="M42.5605 126.009C43.9626 131.162 47.8776 135.98 53.8507 139.904" stroke="url(#paint1_linear_555_3440)" stroke-width="2.29875" stroke-linecap="round" stroke-linejoin="round"/>
<path d="M127.668 126.009C126.266 131.162 122.351 135.98 116.378 139.904" stroke="url(#paint2_linear_555_3440)" stroke-width="2.29875" stroke-linecap="round" stroke-linejoin="round"/>
<path d="M116.833 165.358C114.04 144.305 117.248 122.892 126.087 103.583" stroke="url(#paint3_linear_555_3440)" stroke-width="2.29875" stroke-linecap="round" stroke-linejoin="round"/>
<path d="M126.841 117.849C126.742 118.006 126.634 118.162 126.531 118.319" stroke="white" stroke-width="2.29875" stroke-linecap="round" stroke-linejoin="round"/>
</g>
<path d="M34.4699 76.115C33.3164 73.1684 32.4381 71.4845 32.028 71.5989C30.9993 71.8859 33.3057 83.3779 37.1796 97.2671C41.0534 111.156 45.0278 122.183 46.0565 121.896C46.4035 121.799 46.371 120.428 46.0269 118.119" stroke="url(#paint4_linear_555_3440)" stroke-width="2.18865" stroke-linecap="round" stroke-linejoin="round"/>
<path d="M20.4128 73.8962C14.3335 79.5413 13.6011 89.7472 17.5087 103.758C21.4164 117.768 29.3526 127.796 35.2346 126.155L43.8612 122.965" stroke="url(#paint5_linear_555_3440)" stroke-width="2.18865" stroke-linecap="round" stroke-linejoin="round"/>
<path d="M31.0925 71.2915C29.0082 69.993 26.9238 70.3692 26.9238 66.9715C26.9238 53.0159 32.5711 34.8529 47.7672 23.5254" stroke="url(#paint6_linear_555_3440)" stroke-width="2.18865" stroke-linecap="round" stroke-linejoin="round"/>
<path d="M14.7676 88.662C15.6361 71.5819 21.6723 78.0445 21.6723 65.2348C21.6723 50.4959 27.8213 31.3886 44.2957 19.1841" stroke="url(#paint7_linear_555_3440)" stroke-width="2.18865" stroke-linecap="round" stroke-linejoin="round"/>
<path d="M134.897 76.115C136.051 73.1684 136.929 71.4845 137.339 71.5989C138.368 71.8859 136.061 83.3779 132.188 97.2671C128.314 111.156 124.339 122.183 123.311 121.896C122.964 121.799 122.996 120.428 123.34 118.119" stroke="url(#paint8_linear_555_3440)" stroke-width="2.18865" stroke-linecap="round" stroke-linejoin="round"/>
<path d="M148.947 73.8962C155.026 79.5413 155.758 89.7472 151.851 103.758C147.943 117.768 140.007 127.796 134.125 126.155L125.498 122.965" stroke="url(#paint9_linear_555_3440)" stroke-width="2.18865" stroke-linecap="round" stroke-linejoin="round"/>
<path d="M138.267 71.2915C140.351 69.993 142.436 70.3692 142.436 66.9715C142.436 53.0159 136.788 34.8529 121.592 23.5254" stroke="url(#paint10_linear_555_3440)" stroke-width="2.18865" stroke-linecap="round" stroke-linejoin="round"/>
<path d="M154.592 88.662C153.723 71.5819 147.687 78.0445 147.687 65.2348C147.687 50.4959 141.538 31.3886 125.064 19.1841" stroke="url(#paint11_linear_555_3440)" stroke-width="2.18865" stroke-linecap="round" stroke-linejoin="round"/>
<path d="M44.144 15.1174L43.4391 14.2804H43.4391L44.144 15.1174ZM78.8314 2.11113L78.8506 3.20529L78.8314 2.11113ZM43.8287 17.3312L44.7392 16.7242H44.7392L43.8287 17.3312ZM47.7999 23.2881L46.8894 23.8951L46.8894 23.8951L47.7999 23.2881ZM48.5636 23.4359L47.9453 22.5329L47.9453 22.533L48.5636 23.4359ZM78.1465 13.6048L78.1014 12.5114L78.1465 13.6048ZM84.7278 13.3331L84.7729 12.2397C84.7429 12.2385 84.7127 12.2385 84.6827 12.2397L84.7278 13.3331ZM91.3091 13.6048L91.3542 12.5114L91.3091 13.6048ZM120.892 23.4359L121.51 22.533V22.5329L120.892 23.4359ZM121.656 23.2881L120.745 22.681L120.745 22.6811L121.656 23.2881ZM125.627 17.3312L126.537 17.9383L126.537 17.9383L125.627 17.3312ZM125.312 15.1174L126.017 14.2804V14.2804L125.312 15.1174ZM90.6242 2.11113L90.6049 3.20529L90.6242 2.11113ZM85.1551 2.01502H84.0608C84.0608 2.6119 84.5391 3.09869 85.1359 3.10917L85.1551 2.01502ZM85.1551 2H86.2494C86.2494 1.70643 86.1315 1.42518 85.9221 1.21943C85.7127 1.01368 85.4294 0.900686 85.1359 0.905844L85.1551 2ZM84.7278 2.00751L84.7086 3.10167C84.7214 3.10189 84.7342 3.10189 84.747 3.10167L84.7278 2.00751ZM84.3005 2L84.3197 0.905844C84.0262 0.900686 83.7429 1.01368 83.5335 1.21943C83.3241 1.42518 83.2062 1.70643 83.2062 2H84.3005ZM84.3005 2.01502L84.3197 3.10917C84.9165 3.09869 85.3948 2.6119 85.3948 2.01502H84.3005ZM44.8488 15.9545C54.3824 7.92622 66.3889 3.4243 78.8506 3.20529L78.8122 1.01698C65.8479 1.24482 53.3571 5.92831 43.4391 14.2804L44.8488 15.9545ZM44.7392 16.7242C44.5745 16.4771 44.6217 16.1458 44.8488 15.9545L43.4391 14.2804C42.3597 15.1893 42.1354 16.7641 42.9182 17.9383L44.7392 16.7242ZM48.7105 22.6811L44.7392 16.7242L42.9182 17.9383L46.8894 23.8951L48.7105 22.6811ZM47.9453 22.533C48.1971 22.3605 48.5412 22.4271 48.7105 22.681L46.8894 23.8951C47.3965 24.6558 48.4275 24.8553 49.1819 24.3388L47.9453 22.533ZM78.1014 12.5114C67.3083 12.9569 56.8582 16.4297 47.9453 22.5329L49.1819 24.3388C57.756 18.4676 67.8088 15.1268 78.1917 14.6982L78.1014 12.5114ZM84.6827 12.2397L78.1014 12.5114L78.1917 14.6982L84.7729 14.4265L84.6827 12.2397ZM84.6827 14.4265L91.2639 14.6982L91.3542 12.5114L84.7729 12.2397L84.6827 14.4265ZM91.2639 14.6982C101.647 15.1268 111.7 18.4676 120.274 24.3388L121.51 22.5329C112.597 16.4297 102.147 12.9569 91.3542 12.5114L91.2639 14.6982ZM120.274 24.3388C121.028 24.8553 122.059 24.6558 122.566 23.8951L120.745 22.6811C120.914 22.4271 121.259 22.3605 121.51 22.533L120.274 24.3388ZM122.566 23.8951L126.537 17.9383L124.716 16.7242L120.745 22.681L122.566 23.8951ZM126.537 17.9383C127.32 16.7641 127.096 15.1893 126.017 14.2804L124.607 15.9545C124.834 16.1458 124.881 16.4771 124.716 16.7242L126.537 17.9383ZM126.017 14.2804C116.098 5.92831 103.608 1.24482 90.6434 1.01698L90.6049 3.20529C103.067 3.4243 115.073 7.92622 124.607 15.9545L126.017 14.2804ZM90.6434 1.01698L85.1743 0.920863L85.1359 3.10917L90.6049 3.20529L90.6434 1.01698ZM84.0608 2V2.01502H86.2494V2H84.0608ZM84.747 3.10167L85.1743 3.09416L85.1359 0.905844L84.7086 0.913353L84.747 3.10167ZM84.747 0.913353L84.3197 0.905844L84.2813 3.09416L84.7086 3.10167L84.747 0.913353ZM83.2062 2V2.01502H85.3948V2H83.2062ZM78.8506 3.20529L84.3197 3.10917L84.2813 0.920863L78.8122 1.01698L78.8506 3.20529Z" fill="url(#paint12_linear_555_3440)"/>
</svg>
