<svg width="24" height="24" viewBox="0 0 24 24" fill="none" xmlns="http://www.w3.org/2000/svg">
<path d="M12 7.19431L11.08 7.58626C11.2371 7.955 11.5992 8.19431 12 8.19431C12.4008 8.19431 12.7629 7.955 12.92 7.58626L12 7.19431ZM12 20.0001L11.5143 20.8742C11.8164 21.042 12.1836 21.042 12.4857 20.8742L12 20.0001ZM4 8.99991C4 7.69995 4.37574 6.78173 4.89025 6.1701C5.40763 5.55505 6.11636 5.18832 6.89263 5.07646C8.4546 4.85138 10.2619 5.66609 11.08 7.58626L12.92 6.80237C11.7381 4.0281 9.0454 2.74559 6.60737 3.09691C5.38364 3.27325 4.21737 3.86313 3.35975 4.88263C2.49926 5.90556 2 7.29985 2 8.99991H4ZM12.92 7.58626C13.7381 5.66609 15.5454 4.85138 17.1074 5.07646C17.8836 5.18832 18.5924 5.55505 19.1098 6.1701C19.6243 6.78173 20 7.69995 20 8.99991H22C22 7.29985 21.5007 5.90556 20.6402 4.88263C19.7826 3.86313 18.6164 3.27325 17.3926 3.09691C14.9546 2.74559 12.2619 4.0281 11.08 6.80237L12.92 7.58626ZM20 8.99991C20 11.5331 18.0616 14.0239 15.8356 16.0026C14.7547 16.9635 13.6691 17.748 12.8515 18.293C12.4437 18.5649 12.1051 18.7756 11.8702 18.9172C11.7528 18.988 11.6616 19.0415 11.6008 19.0766C11.5704 19.0942 11.5476 19.1072 11.533 19.1154C11.5257 19.1196 11.5205 19.1225 11.5173 19.1243C11.5158 19.1251 11.5147 19.1257 11.5142 19.126C11.514 19.1261 11.5139 19.1262 11.5139 19.1262C11.5139 19.1262 11.514 19.1261 11.514 19.1261C11.5142 19.126 11.5143 19.1259 12 20.0001C12.4857 20.8742 12.4859 20.8741 12.4862 20.8739C12.4863 20.8739 12.4867 20.8737 12.4869 20.8735C12.4875 20.8732 12.4882 20.8728 12.489 20.8724C12.4907 20.8714 12.4929 20.8702 12.4957 20.8686C12.5012 20.8655 12.5089 20.8612 12.5186 20.8557C12.5381 20.8447 12.5658 20.8289 12.6014 20.8083C12.6724 20.7673 12.7745 20.7075 12.9032 20.6298C13.1606 20.4746 13.525 20.2478 13.961 19.9571C14.8309 19.3771 15.9953 18.5366 17.1644 17.4974C19.4384 15.476 22 12.4667 22 8.99991H20ZM12 20.0001C12.4857 19.1259 12.4858 19.126 12.486 19.1261C12.486 19.1261 12.4861 19.1262 12.4861 19.1262C12.4861 19.1262 12.486 19.1261 12.4858 19.126C12.4853 19.1257 12.4842 19.1251 12.4827 19.1243C12.4795 19.1225 12.4743 19.1196 12.467 19.1154C12.4524 19.1072 12.4296 19.0942 12.3992 19.0766C12.3384 19.0415 12.2472 18.988 12.1298 18.9172C11.8949 18.7756 11.5563 18.5649 11.1485 18.293C10.3309 17.748 9.24531 16.9635 8.16437 16.0026C5.93836 14.0239 4 11.5331 4 8.99991H2C2 12.4667 4.56164 15.476 6.83563 17.4974C8.00469 18.5366 9.16909 19.3771 10.039 19.9571C10.475 20.2478 10.8394 20.4746 11.0968 20.6298C11.2255 20.7075 11.3276 20.7673 11.3986 20.8083C11.4342 20.8289 11.4619 20.8447 11.4814 20.8557C11.4911 20.8612 11.4988 20.8655 11.5043 20.8686C11.5071 20.8702 11.5093 20.8714 11.511 20.8724C11.5118 20.8728 11.5125 20.8732 11.5131 20.8735C11.5133 20.8737 11.5137 20.8739 11.5138 20.8739C11.5141 20.8741 11.5143 20.8742 12 20.0001Z" fill="#FF626A"/>
</svg>
