<svg width="13" height="15" viewBox="0 0 13 15" fill="none" xmlns="http://www.w3.org/2000/svg">
<path fill-rule="evenodd" clip-rule="evenodd" d="M9.33203 4.6665H10.0404C11.2119 4.6665 12.1654 5.61992 12.1654 6.7915V12.4582C12.1654 13.6298 11.2119 14.5832 10.0404 14.5832H2.95703C1.78545 14.5832 0.832031 13.6298 0.832031 12.4582V6.7915C0.832031 5.61992 1.78545 4.6665 2.95703 4.6665H3.66536V3.32846C3.66536 1.72338 4.93611 0.416504 6.4987 0.416504C8.06128 0.416504 9.33203 1.72338 9.33203 3.32846V4.6665ZM6.4987 1.83317C5.71741 1.83317 5.08203 2.50396 5.08203 3.32846V4.6665H7.91536V3.32846C7.91536 2.50396 7.27999 1.83317 6.4987 1.83317Z" fill="#4C4C4C"/>
</svg>
