<svg width="279" height="12" viewBox="0 0 279 12" fill="none" xmlns="http://www.w3.org/2000/svg">
<path fill-rule="evenodd" clip-rule="evenodd" d="M13.8511 0H6C2.68629 0 0 2.68629 0 6C0 9.31371 2.68629 12 6 12H7.91157L13.8511 0ZM12.5304 12H21.9168L27.8563 0H18.4699L12.5304 12ZM35.922 12H26.5356L32.4751 0H41.8615L35.922 12ZM40.5408 12H49.9272L55.8667 0H46.4803L40.5408 12ZM63.9324 12H54.546L60.4855 0H69.8719L63.9324 12ZM68.5512 12H77.9376L83.8771 0H74.4907L68.5512 12ZM91.9428 12H82.5564L88.4959 0H97.8823L91.9428 12ZM96.5616 12H105.948L111.888 0H102.501L96.5616 12ZM119.953 12H110.567L116.506 0H125.893L119.953 12ZM124.572 12H133.958L139.898 0H130.512L124.572 12ZM147.964 12H138.577L144.517 0H153.903L147.964 12ZM152.582 12H161.969L167.908 0H158.522L152.582 12ZM175.974 12H166.588L172.527 0H181.914L175.974 12ZM180.593 12H189.979L195.919 0H186.532L180.593 12ZM203.985 12H194.598L200.538 0H209.924L203.985 12ZM208.603 12H217.99L223.929 0H214.543L208.603 12ZM231.995 12H222.609L228.548 0H237.934L231.995 12ZM236.614 12H246L251.94 0H242.553L236.614 12ZM260.005 12H250.619L256.558 0H265.945L260.005 12ZM264.624 12H273C276.314 12 279 9.31371 279 6C279 2.68629 276.314 0 273 0H270.564L264.624 12Z" fill="#242424"/>
</svg>
