<svg width="53" height="52" viewBox="0 0 53 52" fill="none" xmlns="http://www.w3.org/2000/svg">
<defs>
<linearGradient id="paint0_linear_555_3316" x1="24.8982" y1="12.3036" x2="24.8982" y2="36.5455" gradientUnits="userSpaceOnUse">
<stop stop-color="white"/>
<stop offset="1" stop-color="white" stop-opacity="0"/>
</linearGradient>
<linearGradient id="paint1_linear_555_3316" x1="39.5323" y1="10.2589" x2="39.5323" y2="18.6503" gradientUnits="userSpaceOnUse">
<stop stop-color="white"/>
<stop offset="1" stop-color="white" stop-opacity="0"/>
</linearGradient>
</defs>
<path d="M24.6125 39.0002C24.6125 40.1968 25.5825 41.1668 26.7791 41.1668C27.9757 41.1668 28.9458 40.1968 28.9458 39.0002C28.9458 37.8035 27.9757 36.8335 26.7791 36.8335C25.5825 36.8335 24.6125 37.8035 24.6125 39.0002Z" fill="#D9D9D9"/>
<path d="M18.8551 31.6114C19.8645 30.529 21.0849 29.6649 22.441 29.0724C23.7972 28.4799 25.2615 28.172 26.7414 28.1668C28.2213 28.1617 29.6865 28.4599 31.0467 29.0429C32.407 29.6259 33.6338 30.4813 34.6507 31.5566M14.1029 25.012C15.7142 23.284 17.6619 21.9037 19.8261 20.9559C21.9904 20.0081 24.326 19.5126 26.6887 19.5002M7.76367 19.1026C10.1863 16.5046 13.1156 14.4306 16.3709 13.0086C19.6261 11.5866 23.1387 10.8456 26.6909 10.8335M26.7791 41.1668C25.5825 41.1668 24.6125 40.1968 24.6125 39.0002C24.6125 37.8035 25.5825 36.8335 26.7791 36.8335C27.9757 36.8335 28.9458 37.8035 28.9458 39.0002C28.9458 40.1968 27.9757 41.1668 26.7791 41.1668Z" stroke="url(#paint0_linear_555_3316)" stroke-width="2" stroke-linecap="round" stroke-linejoin="round"/>
<path d="M18.8551 31.6114C19.8645 30.529 21.0849 29.6649 22.441 29.0724C23.7972 28.4799 25.2615 28.172 26.7414 28.1668C28.2213 28.1617 29.6865 28.4599 31.0467 29.0429C32.407 29.6259 33.6338 30.4813 34.6507 31.5566M14.1029 25.012C15.7142 23.284 17.6619 21.9037 19.8261 20.9559C21.9904 20.0081 24.326 19.5126 26.6887 19.5002M7.76367 19.1026C10.1863 16.5046 13.1156 14.4306 16.3709 13.0086C19.6261 11.5866 23.1387 10.8456 26.6909 10.8335M26.7791 41.1668C25.5825 41.1668 24.6125 40.1968 24.6125 39.0002C24.6125 37.8035 25.5825 36.8335 26.7791 36.8335C27.9757 36.8335 28.9458 37.8035 28.9458 39.0002C28.9458 40.1968 27.9757 41.1668 26.7791 41.1668Z" stroke="white" stroke-width="2" stroke-linecap="round" stroke-linejoin="round"/>
<path d="M38.613 17.3333H35.6964V20.25M40.9464 12.6667H43.863V9.75M35.4531 13.252C35.7802 12.4425 36.3278 11.7409 37.0337 11.2271C37.7396 10.7133 38.5762 10.4077 39.4471 10.3453C40.3179 10.2829 41.1883 10.466 41.9603 10.8739C42.7322 11.2817 43.3738 11.8981 43.8129 12.6527M44.1066 16.7483C43.7795 17.5578 43.2319 18.2593 42.526 18.7731C41.8201 19.287 40.9844 19.5922 40.1135 19.6546C39.2427 19.717 38.3716 19.5339 37.5996 19.1261C36.8276 18.7182 36.1857 18.1019 35.7465 17.3473" stroke="url(#paint1_linear_555_3316)" stroke-width="2" stroke-linecap="round" stroke-linejoin="round"/>
<path d="M38.613 17.3333H35.6964V20.25M40.9464 12.6667H43.863V9.75M35.4531 13.252C35.7802 12.4425 36.3278 11.7409 37.0337 11.2271C37.7396 10.7133 38.5762 10.4077 39.4471 10.3453C40.3179 10.2829 41.1883 10.466 41.9603 10.8739C42.7322 11.2817 43.3738 11.8981 43.8129 12.6527M44.1066 16.7483C43.7795 17.5578 43.2319 18.2593 42.526 18.7731C41.8201 19.287 40.9844 19.5922 40.1135 19.6546C39.2427 19.717 38.3716 19.5339 37.5996 19.1261C36.8276 18.7182 36.1857 18.1019 35.7465 17.3473" stroke="white" stroke-width="2" stroke-linecap="round" stroke-linejoin="round"/>
</svg>
