<svg width="122" height="105" viewBox="0 0 122 105" fill="none" xmlns="http://www.w3.org/2000/svg">
<path d="M100.001 52.9605C94.6471 47.2188 88.0914 42.73 80.8021 39.8145M119.503 34.7743C111.472 26.1618 101.638 19.4286 90.7044 15.0553C79.7705 10.6821 68.0067 8.77503 56.2513 9.47343M36.6159 73.2692C40.7021 68.8872 45.8939 65.6877 51.645 64.0072C57.3961 62.3266 63.4942 62.2227 69.2969 63.715M21.9935 52.9583C28.3159 46.1783 36.2965 41.1634 45.148 38.4082M2.48828 34.7729C8.47406 28.354 15.4753 22.9638 23.2115 18.8184M10.4245 2.66602L104.705 96.9469M60.9974 102.666C57.3155 102.666 54.3307 99.6812 54.3307 95.9994C54.3307 92.3175 57.3155 89.3327 60.9974 89.3327C64.6793 89.3327 67.6641 92.3175 67.6641 95.9994C67.6641 99.6812 64.6793 102.666 60.9974 102.666Z" stroke="url(#paint0_linear_745_2706)" stroke-width="4" stroke-linecap="round" stroke-linejoin="round"/>
<defs>
<linearGradient id="paint0_linear_745_2706" x1="45.8564" y1="-3.75254" x2="45.8564" y2="160.302" gradientUnits="userSpaceOnUse">
<stop stop-color="white"/>
<stop offset="1" stop-color="white" stop-opacity="0"/>
</linearGradient>
</defs>
</svg>
