<svg width="20" height="17" viewBox="0 0 20 17" fill="none" xmlns="http://www.w3.org/2000/svg">
<path d="M10 13C8.34315 13 7 11.6569 7 10C7 8.34315 8.34315 7 10 7C11.6569 7 13 8.34315 13 10C13 11.6569 11.6569 13 10 13ZM19 7.20001V12.8C19 13.9201 19.0002 14.4801 18.7822 14.908C18.5905 15.2843 18.2841 15.5902 17.9078 15.782C17.48 16 16.9203 16 15.8002 16H4.2002C3.08009 16 2.51962 16 2.0918 15.782C1.71547 15.5902 1.40973 15.2843 1.21799 14.908C1 14.4801 1 13.9201 1 12.8V7.20001C1 6.07991 1 5.51986 1.21799 5.09204C1.40973 4.71572 1.71547 4.40973 2.0918 4.21799C2.51962 4 3.08009 4 4.2002 4H15.8002C16.9203 4 17.48 4 17.9078 4.21799C18.2841 4.40973 18.5905 4.71572 18.7822 5.09204C19.0002 5.51986 19 6.07991 19 7.20001ZM12.449 4H7.55078C7.40459 4 7.33183 3.99998 7.27637 3.99377C6.68878 3.92799 6.28627 3.36953 6.40967 2.7913C6.42132 2.73672 6.44449 2.66735 6.49072 2.52866C6.54205 2.37467 6.56772 2.29768 6.59607 2.22974C6.88635 1.53413 7.54273 1.06083 8.29443 1.00541C8.36785 1 8.44901 1 8.61133 1H11.3886C11.5509 1 11.6321 1 11.7056 1.00541C12.4573 1.06083 13.114 1.53413 13.4043 2.22974C13.4326 2.29768 13.4584 2.3747 13.5098 2.52869C13.556 2.66738 13.5791 2.73672 13.5908 2.7913C13.7142 3.36954 13.3116 3.92799 12.724 3.99377C12.6685 3.99998 12.5952 4 12.449 4Z" stroke="white" stroke-width="2" stroke-linecap="round" stroke-linejoin="round"/>
</svg>
