<svg width="21" height="20" viewBox="0 0 21 20" fill="none" xmlns="http://www.w3.org/2000/svg">
<path d="M18.332 5H16.1807C15.6832 5 15.332 4.49751 15.332 4C15.332 2.34315 13.9889 1 12.332 1C10.6752 1 9.33203 2.34315 9.33203 4C9.33203 4.49751 8.98087 5 8.48337 5H6.33203C5.77975 5 5.33203 5.44772 5.33203 6V8.15133C5.33203 8.64884 4.82954 9 4.33203 9C2.67518 9 1.33203 10.3431 1.33203 12C1.33203 13.6569 2.67518 15 4.33203 15C4.82954 15 5.33203 15.3511 5.33203 15.8486V18C5.33203 18.5523 5.77975 19 6.33203 19L18.332 19C18.8843 19 19.332 18.5523 19.332 18V15.8486C19.332 15.3511 18.8295 15 18.332 15C16.6752 15 15.332 13.6569 15.332 12C15.332 10.3431 16.6752 9 18.332 9C18.8295 9 19.332 8.64884 19.332 8.15134L19.3321 6C19.3321 5.44772 18.8843 5 18.332 5Z" stroke="#D38AFF" stroke-width="2" stroke-linecap="round" stroke-linejoin="round"/>
</svg>
