<svg width="25" height="24" viewBox="0 0 25 24" fill="none" xmlns="http://www.w3.org/2000/svg">
<g opacity="0.6">
<path fill-rule="evenodd" clip-rule="evenodd" d="M17.812 15.897L21.207 19.293C21.598 19.684 21.598 20.316 21.207 20.707C21.012 20.902 20.756 21 20.5 21C20.244 21 19.988 20.902 19.793 20.707L16.397 17.312C15.043 18.365 13.346 19 11.5 19C7.089 19 3.5 15.411 3.5 11C3.5 6.589 7.089 3 11.5 3C15.911 3 19.5 6.589 19.5 11C19.5 12.846 18.865 14.543 17.812 15.897ZM11.5 5C8.191 5 5.5 7.691 5.5 11C5.5 14.309 8.191 17 11.5 17C14.809 17 17.5 14.309 17.5 11C17.5 7.691 14.809 5 11.5 5Z" fill="white"/>
<mask id="mask0_12111_6460" style="mask-type:luminance" maskUnits="userSpaceOnUse" x="3" y="3" width="19" height="18">
<path fill-rule="evenodd" clip-rule="evenodd" d="M17.812 15.897L21.207 19.293C21.598 19.684 21.598 20.316 21.207 20.707C21.012 20.902 20.756 21 20.5 21C20.244 21 19.988 20.902 19.793 20.707L16.397 17.312C15.043 18.365 13.346 19 11.5 19C7.089 19 3.5 15.411 3.5 11C3.5 6.589 7.089 3 11.5 3C15.911 3 19.5 6.589 19.5 11C19.5 12.846 18.865 14.543 17.812 15.897ZM11.5 5C8.191 5 5.5 7.691 5.5 11C5.5 14.309 8.191 17 11.5 17C14.809 17 17.5 14.309 17.5 11C17.5 7.691 14.809 5 11.5 5Z" fill="white"/>
</mask>
<g mask="url(#mask0_12111_6460)">
</g>
</g>
</svg>
