<svg width="16" height="16" viewBox="0 0 16 16" fill="none" xmlns="http://www.w3.org/2000/svg">
<path d="M4.5 5C4.5 4.17157 3.82843 3.5 3 3.5C2.17157 3.5 1.5 4.17157 1.5 5V11C1.5 11.8284 2.17157 12.5 3 12.5C3.82843 12.5 4.5 11.8284 4.5 11V5Z" fill="#8E8E8E"/>
<path d="M9.5 2C9.5 1.17157 8.82843 0.5 8 0.5C7.17157 0.5 6.5 1.17157 6.5 2V14C6.5 14.8284 7.17157 15.5 8 15.5C8.82843 15.5 9.5 14.8284 9.5 14V2Z" fill="#8E8E8E"/>
<path d="M14.5 5C14.5 4.17157 13.8284 3.5 13 3.5C12.1716 3.5 11.5 4.17157 11.5 5V11C11.5 11.8284 12.1716 12.5 13 12.5C13.8284 12.5 14.5 11.8284 14.5 11V5Z" fill="#8E8E8E"/>
</svg>
