<svg width="25" height="24" viewBox="0 0 25 24" fill="none" xmlns="http://www.w3.org/2000/svg">
    <path d="M21.23 19.9808H6.44419C5.32516 19.9808 4.76523 19.9808 4.33782 19.763C3.96186 19.5714 3.65641 19.2659 3.46485 18.8899C3.24707 18.4625 3.24707 17.9029 3.24707 16.7839V4.99524M21.2297 6.99332L15.3897 12.1034C14.6903 12.7154 14.3405 13.0214 13.9575 13.1484C13.5057 13.2983 13.0152 13.2819 12.5744 13.1023C12.2007 12.9501 11.8723 12.6216 11.2152 11.9644C10.5723 11.3215 10.2508 11.0001 9.88424 10.848C9.45181 10.6686 8.97031 10.6467 8.52342 10.7862C8.14456 10.9044 7.79522 11.1955 7.09676 11.7775L3.24707 14.9856" stroke="white" stroke-width="1.99808" stroke-linecap="round" stroke-linejoin="round"/>
    </svg>
    