<svg width="25" height="24" viewBox="0 0 25 24" fill="none" xmlns="http://www.w3.org/2000/svg">
    <path d="M2.83285 10.3269C2.5199 10.0375 2.6899 9.51428 3.11319 9.46409L9.11099 8.75297C9.28351 8.73251 9.43335 8.62382 9.50612 8.46607L12.0359 2.98148C12.2144 2.59442 12.7647 2.59437 12.9432 2.98143L15.473 8.46615C15.5458 8.6239 15.6947 8.73252 15.8672 8.75298L21.8653 9.46409C22.2886 9.51428 22.4585 10.0375 22.1455 10.3269L17.7115 14.4277C17.5839 14.5456 17.527 14.7215 17.5609 14.8918L18.7377 20.816C18.8208 21.234 18.3759 21.5573 18.0039 21.3491L12.7336 18.3991C12.5821 18.3142 12.3974 18.3141 12.2458 18.399L6.97499 21.3492C6.60304 21.5574 6.15763 21.2341 6.24071 20.816L7.41785 14.8918C7.45171 14.7214 7.39484 14.5457 7.26729 14.4277L2.83285 10.3269Z" stroke="white" stroke-width="1.99808" stroke-linecap="round" stroke-linejoin="round"/>
    </svg>
    