<svg width="25" height="24" viewBox="0 0 25 24" fill="none" xmlns="http://www.w3.org/2000/svg">
<path d="M8.08453 6.82623C8.18685 6.97435 8.28088 7.12443 8.36677 7.2765C8.17717 7.22793 7.98095 7.20066 7.77934 7.20066C7.40659 7.20066 7.02106 7.33563 6.73025 7.65563L6.73024 7.65563L6.72746 7.65872C6.45698 7.95885 6.36215 8.31981 6.36215 8.64323C6.36215 8.77904 6.37253 8.95875 6.3883 9.16281L6.38938 9.17685L6.39086 9.19085C6.40832 9.35614 6.41623 9.50328 6.41623 9.63338C6.41623 9.91881 6.38199 10.1596 6.3237 10.3626L7.28489 10.6385L6.3237 10.3626C6.24949 10.6212 6.15503 10.8798 6.03951 11.1386C5.90056 11.4499 5.76218 11.7756 5.62431 12.1154L5.62423 12.1153L5.61933 12.1279C5.46946 12.512 5.3451 12.931 5.24336 13.381L5.24331 13.381L5.24131 13.3902C5.13527 13.8808 5.0874 14.4217 5.0874 15.0042C5.0874 16.181 5.3795 17.255 5.99414 18.1875L5.99414 18.1875L5.99584 18.1901C6.60301 19.105 7.44887 19.8004 8.49476 20.2848C9.54839 20.7728 10.7481 21 12.0671 21C13.1721 21 14.2033 20.8256 15.1476 20.46C16.0811 20.0986 16.8993 19.5788 17.5892 18.8977C18.2874 18.2134 18.8171 17.3967 19.1801 16.461C19.5447 15.5206 19.719 14.4957 19.719 13.399C19.719 12.2063 19.5606 11.1008 19.2286 10.0936C18.9048 9.10676 18.454 8.21505 17.8706 7.42722C17.3064 6.65849 16.6531 5.98984 15.9109 5.42539C15.1912 4.87422 14.4238 4.41645 13.6094 4.05403C12.8062 3.6966 11.9891 3.43141 11.159 3.26114C10.3481 3.08882 9.56083 3 8.79914 3C8.39087 3 7.94559 3.06538 7.55409 3.29345L7.55405 3.29339L7.54316 3.29992C7.07443 3.58101 6.79479 4.05484 6.79479 4.6151C6.79479 4.84998 6.8486 5.06942 6.93715 5.26595C7.02345 5.45746 7.14086 5.62264 7.26001 5.76146L7.25999 5.76148L7.26453 5.7667C7.54774 6.09208 7.82118 6.44502 8.08453 6.82623Z" stroke="white" stroke-width="2"/>
<path d="M10.5373 17.3371C10.9597 17.7071 11.5159 17.8922 12.2061 17.8922C12.7984 17.8922 13.2877 17.7671 13.674 17.5171C14.0654 17.2671 14.3564 16.937 14.547 16.527C14.7375 16.1169 14.8328 15.6743 14.8328 15.1992C14.8328 14.7292 14.7401 14.2566 14.5547 13.7815C14.3693 13.3065 14.0937 12.8689 13.728 12.4688C13.3624 12.0638 12.9091 11.7362 12.3683 11.4862C12.3323 11.4712 12.3039 11.4712 12.2833 11.4862C12.2679 11.5012 12.2627 11.5262 12.2679 11.5612C12.3451 12.1663 12.3426 12.7189 12.2602 13.2189C12.1778 13.719 12.0361 14.0991 11.8352 14.3591C11.7374 14.1541 11.6266 13.9616 11.503 13.7815C11.3846 13.5965 11.2378 13.429 11.0627 13.2789C11.0369 13.2589 11.0137 13.2539 10.9931 13.2639C10.9725 13.2689 10.9597 13.2889 10.9545 13.324C10.9236 13.529 10.8515 13.719 10.7382 13.894C10.63 14.0641 10.5116 14.2416 10.3828 14.4266C10.254 14.6117 10.1407 14.8192 10.0429 15.0492C9.95016 15.2743 9.90381 15.5468 9.90381 15.8669C9.90381 16.4719 10.115 16.962 10.5373 17.3371Z" fill="white"/>
</svg>
