<svg width="24" height="24" viewBox="0 0 24 24" fill="none" xmlns="http://www.w3.org/2000/svg">
<path fill-rule="evenodd" clip-rule="evenodd" d="M12 24C18.6274 24 24 18.6274 24 12C24 5.37258 18.6274 0 12 0C5.37258 0 0 5.37258 0 12C0 18.6274 5.37258 24 12 24ZM17.874 9.32544C18.2905 8.92163 18.3007 8.25669 17.8969 7.84026C17.4931 7.42383 16.8281 7.4136 16.4117 7.81741L10.0714 13.9655L7.58831 11.5577C7.17188 11.1539 6.50694 11.1641 6.10313 11.5805C5.69932 11.997 5.70955 12.6619 6.12598 13.0657L9.34026 16.1826C9.74766 16.5776 10.3952 16.5776 10.8026 16.1826L17.874 9.32544Z" fill="white"/>
</svg>
