<svg width="16" height="16" viewBox="0 0 16 16" fill="none" xmlns="http://www.w3.org/2000/svg">
    <path d="M8 6.00012V8.66679M2.91927 10.1333C2.31298 11.1834 2.00992 11.7087 2.05521 12.1396C2.09471 12.5154 2.29195 12.8568 2.59766 13.0789C2.94802 13.3335 3.55394 13.3335 4.76569 13.3335H11.2343C12.4461 13.3335 13.0519 13.3335 13.4023 13.0789C13.708 12.8568 13.9053 12.5154 13.9448 12.1396C13.9901 11.7087 13.6871 11.1834 13.0808 10.1333L9.84766 4.53332C9.24137 3.4832 8.93809 2.95823 8.54232 2.78202C8.19711 2.62832 7.80267 2.62832 7.45746 2.78202C7.06185 2.95816 6.75876 3.48313 6.15298 4.53238L2.91927 10.1333ZM8.03385 10.6668V10.7335L7.9668 10.7336V10.6668H8.03385Z" stroke="#FFE27B" stroke-width="1.33333" stroke-linecap="round" stroke-linejoin="round"/>
    </svg>
    