<svg width="52" height="52" viewBox="0 0 52 52" fill="none" xmlns="http://www.w3.org/2000/svg">
<path d="M23.8312 39.0002C23.8312 40.1968 24.8013 41.1668 25.9979 41.1668C27.1945 41.1668 28.1645 40.1968 28.1645 39.0002C28.1645 37.8035 27.1945 36.8335 25.9979 36.8335C24.8013 36.8335 23.8312 37.8035 23.8312 39.0002Z" fill="#D9D9D9"/>
<path d="M18.0739 31.6114C19.0832 30.529 20.3036 29.6649 21.6598 29.0724C23.0159 28.4799 24.4802 28.172 25.9602 28.1668C27.4401 28.1617 28.9052 28.4599 30.2655 29.0429C31.6258 29.6259 32.8526 30.4813 33.8695 31.5566M13.3216 25.012C14.933 23.284 16.8806 21.9037 19.0449 20.9559C21.2091 20.0081 23.5447 19.5126 25.9074 19.5002M6.98242 19.1026C9.40506 16.5046 12.3344 14.4306 15.5896 13.0086C18.8448 11.5866 22.3574 10.8456 25.9097 10.8335M25.9979 41.1668C24.8013 41.1668 23.8312 40.1968 23.8312 39.0002C23.8312 37.8035 24.8013 36.8335 25.9979 36.8335C27.1945 36.8335 28.1645 37.8035 28.1645 39.0002C28.1645 40.1968 27.1945 41.1668 25.9979 41.1668Z" stroke="url(#paint0_linear_1333_3983)" stroke-width="2" stroke-linecap="round" stroke-linejoin="round"/>
<path d="M18.0739 31.6114C19.0832 30.529 20.3036 29.6649 21.6598 29.0724C23.0159 28.4799 24.4802 28.172 25.9602 28.1668C27.4401 28.1617 28.9052 28.4599 30.2655 29.0429C31.6258 29.6259 32.8526 30.4813 33.8695 31.5566M13.3216 25.012C14.933 23.284 16.8806 21.9037 19.0449 20.9559C21.2091 20.0081 23.5447 19.5126 25.9074 19.5002M6.98242 19.1026C9.40506 16.5046 12.3344 14.4306 15.5896 13.0086C18.8448 11.5866 22.3574 10.8456 25.9097 10.8335M25.9979 41.1668C24.8013 41.1668 23.8312 40.1968 23.8312 39.0002C23.8312 37.8035 24.8013 36.8335 25.9979 36.8335C27.1945 36.8335 28.1645 37.8035 28.1645 39.0002C28.1645 40.1968 27.1945 41.1668 25.9979 41.1668Z" stroke="white" stroke-width="2" stroke-linecap="round" stroke-linejoin="round"/>
<path d="M36.4819 18L36.4806 13.5194L36.4793 9.03879" stroke="url(#paint1_linear_1333_3983)" stroke-width="2" stroke-linecap="round" stroke-linejoin="round"/>
<path d="M36.4819 18L36.4806 13.5194L36.4793 9.03879" stroke="white" stroke-width="2" stroke-linecap="round" stroke-linejoin="round"/>
<circle cx="36.4824" cy="21" r="1" fill="white"/>
<defs>
<linearGradient id="paint0_linear_1333_3983" x1="30.1467" y1="12.3036" x2="30.1467" y2="36.5455" gradientUnits="userSpaceOnUse">
<stop stop-color="white"/>
<stop offset="1" stop-color="white" stop-opacity="0"/>
</linearGradient>
<linearGradient id="paint1_linear_1333_3983" x1="30.4255" y1="16.6131" x2="42.9622" y2="29.1498" gradientUnits="userSpaceOnUse">
<stop stop-color="white"/>
<stop offset="1" stop-color="white" stop-opacity="0"/>
</linearGradient>
</defs>
</svg>
