<svg width="20" height="17" viewBox="0 0 20 17" fill="none" xmlns="http://www.w3.org/2000/svg">
<path d="M15.8535 8.54417C15.0504 7.68292 14.067 7.00959 12.9736 6.57227M18.7788 5.81625C17.5741 4.52437 16.0991 3.51439 14.459 2.8584C12.8189 2.20241 11.0543 1.91635 9.29102 2.02111M6.3457 11.5905C6.95864 10.9332 7.73741 10.4532 8.60007 10.2012C9.46273 9.94909 10.3774 9.93351 11.2479 10.1574M4.15234 8.54385C5.10071 7.52685 6.29779 6.77461 7.62552 6.36133M1.22656 5.81604C2.12443 4.85319 3.17462 4.04466 4.33504 3.42285M2.41699 1L16.5591 15.1421M10.0029 16C9.45065 16 9.00293 15.5523 9.00293 15C9.00293 14.4477 9.45065 14 10.0029 14C10.5552 14 11.0029 14.4477 11.0029 15C11.0029 15.5523 10.5552 16 10.0029 16Z" stroke="#F95656" stroke-width="2" stroke-linecap="round" stroke-linejoin="round"/>
</svg>
