<svg width="24" height="24" viewBox="0 0 24 24" fill="none" xmlns="http://www.w3.org/2000/svg">
    <path fill-rule="evenodd" clip-rule="evenodd" d="M12 24C18.6274 24 24 18.6274 24 12C24 5.37258 18.6274 0 12 0C5.37258 0 0 5.37258 0 12C0 18.6274 5.37258 24 12 24ZM11.1451 7.71449C11.1451 7.24111 11.5288 6.85735 12.0022 6.85735C12.4756 6.85735 12.8594 7.24111 12.8594 7.7145V12.8574C12.8594 13.3307 12.4756 13.7145 12.0022 13.7145C11.5288 13.7145 11.1451 13.3307 11.1451 12.8574V7.71449ZM11.1451 15.4288C11.1451 14.9554 11.5288 14.5716 12.0022 14.5716C12.4756 14.5716 12.8594 14.9554 12.8594 15.4288C12.8594 15.9022 12.4756 16.2859 12.0022 16.2859C11.5288 16.2859 11.1451 15.9022 11.1451 15.4288Z" fill="#FFE27B"/>
    </svg>