<svg width="24" height="24" viewBox="0 0 24 24" fill="none" xmlns="http://www.w3.org/2000/svg">
    <g opacity="0.6">
    <path d="M14.4871 9.1238L18.9239 0.989013C19.1883 0.504154 19.7957 0.325472 20.2806 0.589916C20.7654 0.854357 20.9441 1.46179 20.6797 1.94665L16.2203 10.123C16.5928 10.4124 16.9247 10.7346 17.2117 11.0912C17.6865 11.681 18.0282 12.334 18.2241 13.0464C18.4243 13.7648 18.4621 14.5052 18.3457 15.257C18.2285 16.0137 17.9547 16.7485 17.5447 17.4586C17.1029 18.224 16.588 18.8812 15.9923 19.4129C15.4147 19.93 14.7874 20.3409 14.1101 20.6351C13.4577 20.9218 12.7836 21.111 12.0901 21.1993C11.4214 21.2867 10.7559 21.2962 10.095 21.2266C9.44642 21.1583 8.82158 21.0255 8.22249 20.8262C7.63848 20.6363 7.09737 20.4007 6.60357 20.1156C6.32606 19.9554 6.02564 19.7234 5.82959 19.3807L5.82952 19.3808L5.82336 19.3697C5.58568 18.9417 5.5803 18.4407 5.83247 18.004C5.93873 17.8199 6.0795 17.6736 6.23455 17.5621C6.38512 17.4537 6.5438 17.382 6.68511 17.3323L6.6851 17.3323L6.69165 17.3301C6.91646 17.2528 7.14416 17.1628 7.37479 17.0597C7.13028 16.887 6.93096 16.6257 6.85642 16.2828L6.85642 16.2828L6.85555 16.2787C6.77765 15.913 6.87005 15.5834 7.01358 15.3348C7.06821 15.2402 7.14457 15.1244 7.22855 15.0018L7.23651 14.9902L7.24479 14.9788C7.31031 14.8887 7.36272 14.808 7.40401 14.7365C7.4957 14.5777 7.5502 14.4393 7.57982 14.3204C7.62338 14.1455 7.65539 13.963 7.67525 13.7724C7.70106 13.5247 7.73241 13.2685 7.7692 13.0039L7.76911 13.0039L7.77115 12.9906C7.81848 12.6809 7.89532 12.361 7.99735 12.0326L7.99731 12.0326L8.0002 12.0236C8.11824 11.656 8.29249 11.2829 8.50964 10.9068C8.95752 10.131 9.565 9.52482 10.339 9.13709L10.3417 9.13572C11.1012 8.75818 11.932 8.62215 12.805 8.70081C13.3714 8.75184 13.9326 8.89659 14.4871 9.1238Z" stroke="white" stroke-width="2" stroke-linecap="round"/>
<path d="M3.9829 8.73398L3.9829 8.73203M8.9829 4.73398L8.9829 4.73203M4.9829 4.73203L4.98485 4.73203" stroke="white" stroke-width="2" stroke-linecap="round"/>
    </g>
</svg>
