<svg width="16" height="16" viewBox="0 0 16 16" fill="none" xmlns="http://www.w3.org/2000/svg">
<path fill-rule="evenodd" clip-rule="evenodd" d="M2.66797 7.99984C2.66797 5.05904 5.0605 2.6665 8.0013 2.6665C10.9421 2.6665 13.3346 5.05904 13.3346 7.99984C13.3346 10.9406 10.9421 13.3332 8.0013 13.3332C5.0605 13.3332 2.66797 10.9406 2.66797 7.99984ZM8.00078 8.53308H10.4673C10.7623 8.53308 11.0007 8.29468 11.0007 7.99975C11.0007 7.70482 10.7623 7.46642 10.4673 7.46642H8.53411V4.53317C8.53411 4.23824 8.29518 3.99984 8.00078 3.99984C7.70638 3.99984 7.46745 4.23824 7.46745 4.53317V7.99975C7.46745 8.29468 7.70638 8.53308 8.00078 8.53308Z" fill="#999999"/>
</svg>
