<svg width="18" height="20" viewBox="0 0 18 20" fill="none" xmlns="http://www.w3.org/2000/svg">
<path d="M9.92578 18.6312L10.3381 19.5422L9.92578 18.6312ZM8.07395 18.6312L7.66159 19.5422L8.07395 18.6312ZM1.21799 2.09204L2.10899 2.54603L1.21799 2.09204ZM2.0918 1.21799L2.54579 2.10899L2.0918 1.21799ZM9.33887 18.8262L9.16967 17.8406L9.33887 18.8262ZM8.66187 18.8262L8.83107 17.8406L8.66187 18.8262ZM16.7822 2.09204L15.8912 2.54603V2.54603L16.7822 2.09204ZM15.9078 1.21799L16.3618 0.32698V0.32698L15.9078 1.21799ZM16 4.19995V8.16481H18V4.19995H16ZM16 8.16481C16 14.1204 11.5186 16.8125 9.51342 17.7201L10.3381 19.5422C12.5453 18.5431 18 15.3457 18 8.16481H16ZM8.48631 17.7201C6.48121 16.8125 2 14.1204 2 8.16479H0C0 15.3457 5.45439 18.5431 7.66159 19.5422L8.48631 17.7201ZM2 8.16479V4.19995H0V8.16479H2ZM4.2002 2H13.8002V0H4.2002V2ZM2 4.19995C2 3.6234 2.00078 3.25114 2.02393 2.96783C2.04612 2.6962 2.0838 2.59549 2.10899 2.54603L0.32698 1.63805C0.134191 2.01642 0.0628722 2.40961 0.0305698 2.80495C-0.000777841 3.18861 0 3.6564 0 4.19995H2ZM4.2002 0C3.65663 0 3.18874 -0.000777125 2.80498 0.0305674C2.40962 0.0628601 2.01624 0.134156 1.63781 0.32698L2.54579 2.10899C2.59517 2.08383 2.69595 2.04613 2.9678 2.02393C3.25126 2.00078 3.62365 2 4.2002 2V0ZM2.10899 2.54603C2.205 2.35761 2.35788 2.20474 2.54579 2.10899L1.63781 0.32698C1.07306 0.614732 0.614469 1.07382 0.32698 1.63805L2.10899 2.54603ZM9.51342 17.7201C9.39143 17.7753 9.34966 17.7936 9.31129 17.8071C9.28666 17.8157 9.25166 17.8266 9.16967 17.8406L9.50807 19.8118C9.89027 19.7462 10.0955 19.652 10.3381 19.5422L9.51342 17.7201ZM7.66159 19.5422C7.90569 19.6527 8.11128 19.7463 8.49267 19.8118L8.83107 17.8406C8.74878 17.8265 8.71325 17.8156 8.68809 17.8068C8.64969 17.7933 8.60739 17.7749 8.48631 17.7201L7.66159 19.5422ZM9.16967 17.8406C9.18201 17.8385 9.17122 17.8409 9.12987 17.8433C9.09356 17.8454 9.04854 17.8467 9.00037 17.8467C8.9522 17.8467 8.90718 17.8454 8.87087 17.8433C8.82952 17.8409 8.81873 17.8385 8.83107 17.8406L8.49267 19.8118C8.65785 19.8402 8.85539 19.8467 9.00037 19.8467C9.14535 19.8467 9.34288 19.8402 9.50807 19.8118L9.16967 17.8406ZM18 4.19995C18 3.6565 18.0008 3.1887 17.9695 2.80511C17.9373 2.40983 17.8661 2.01653 17.6732 1.63805L15.8912 2.54603C15.9164 2.59537 15.954 2.69598 15.9762 2.96767C15.9993 3.25105 16 3.6233 16 4.19995H18ZM13.8002 2C14.3768 2 14.7489 2.00078 15.0321 2.02393C15.3036 2.04611 15.4043 2.08377 15.4538 2.10899L16.3618 0.32698C15.9835 0.134215 15.5904 0.0628801 15.1951 0.0305714C14.8115 -0.000778198 14.3437 0 13.8002 0V2ZM17.6732 1.63805C17.3854 1.07315 16.9259 0.614392 16.3618 0.32698L15.4538 2.10899C15.6424 2.20508 15.7956 2.35828 15.8912 2.54603L17.6732 1.63805Z" fill="white"/>
</svg>
