<svg width="109" height="108" viewBox="0 0 109 108" fill="none" xmlns="http://www.w3.org/2000/svg">
<path d="M16.1953 48.0938V62.0156" stroke="white" stroke-width="1.6875"/>
<path d="M21.2578 39.6562V53.1562" stroke="white" stroke-width="1.6875"/>
<path d="M87.0703 39.6562V53.1562" stroke="white" stroke-width="1.6875"/>
<path d="M92.1328 48.0938V62.0156" stroke="white" stroke-width="1.6875"/>
<path d="M76.1016 67.9219C77.7891 67.5 81.1641 66.2344 82.0078 65.8125" stroke="white" stroke-width="1.6875" stroke-linecap="round"/>
<path d="M88.3359 54.5273C82.5966 49.513 70.8637 45.9752 56.6953 45.5967M19.9922 54.5273C25.5021 49.7135 36.5358 46.2 49.9453 45.5967" stroke="white" stroke-width="1.6875"/>
<circle cx="25.6221" cy="41.6748" r="0.84375" fill="white"/>
<circle cx="25.6221" cy="44.3418" r="0.84375" fill="white"/>
<circle cx="25.6221" cy="47.0088" r="0.84375" fill="white"/>
<circle cx="28.1533" cy="40.3037" r="0.84375" fill="white"/>
<circle cx="28.1533" cy="42.9707" r="0.84375" fill="white"/>
<circle cx="28.1533" cy="45.6377" r="0.84375" fill="white"/>
<circle cx="30.7383" cy="39.3242" r="0.84375" fill="white"/>
<circle cx="30.7383" cy="41.9912" r="0.84375" fill="white"/>
<circle cx="30.7383" cy="44.6592" r="0.84375" fill="white"/>
<circle cx="0.84375" cy="0.84375" r="0.84375" transform="matrix(-1 0 0 1 83.6611 40.8311)" fill="white"/>
<circle cx="0.84375" cy="0.84375" r="0.84375" transform="matrix(-1 0 0 1 83.6611 43.498)" fill="white"/>
<circle cx="0.84375" cy="0.84375" r="0.84375" transform="matrix(-1 0 0 1 83.6611 46.165)" fill="white"/>
<circle cx="0.84375" cy="0.84375" r="0.84375" transform="matrix(-1 0 0 1 81.1299 39.46)" fill="white"/>
<circle cx="0.84375" cy="0.84375" r="0.84375" transform="matrix(-1 0 0 1 81.1299 42.127)" fill="white"/>
<circle cx="0.84375" cy="0.84375" r="0.84375" transform="matrix(-1 0 0 1 81.1299 44.7939)" fill="white"/>
<circle cx="0.84375" cy="0.84375" r="0.84375" transform="matrix(-1 0 0 1 78.5449 38.4805)" fill="white"/>
<circle cx="0.84375" cy="0.84375" r="0.84375" transform="matrix(-1 0 0 1 78.5449 41.1475)" fill="white"/>
<circle cx="0.84375" cy="0.84375" r="0.84375" transform="matrix(-1 0 0 1 78.5449 43.8154)" fill="white"/>
<path d="M49.6243 32.0625C30.795 33.0224 16.1953 39.5657 16.1953 47.8802C16.1953 56.852 33.1945 64.125 54.1641 64.125C75.1336 64.125 92.1328 56.852 92.1328 47.8802C92.1328 39.3844 76.4766 32.7783 57.053 32.0625" stroke="white" stroke-width="1.6875"/>
<path d="M92.1328 61.5937C92.1328 70.4476 75.5996 77.625 54.1641 77.625C32.7285 77.625 16.1953 70.4476 16.1953 61.5938" stroke="white" stroke-width="1.6875"/>
<rect x="49.1016" y="31.2188" width="3.375" height="15.1875" rx="1.6875" stroke="white" stroke-width="1.6875"/>
<rect x="54.1641" y="31.2188" width="3.375" height="15.1875" rx="1.6875" stroke="white" stroke-width="1.6875"/>
<defs>
<linearGradient id="paint0_linear_12163_50370" x1="16.1953" y1="52.7768" x2="18.9977" y2="60.3981" gradientUnits="userSpaceOnUse">
<stop stop-color="#BFBFBF"/>
<stop offset="1" stop-color="#959595"/>
</linearGradient>
<linearGradient id="paint1_linear_12163_50370" x1="21.2578" y1="44.1974" x2="23.9118" y2="51.6406" gradientUnits="userSpaceOnUse">
<stop stop-color="#A6A6A6"/>
<stop offset="1" stop-color="#D2D2D2"/>
</linearGradient>
<linearGradient id="paint2_linear_12163_50370" x1="87.0703" y1="44.1974" x2="89.7243" y2="51.6406" gradientUnits="userSpaceOnUse">
<stop stop-color="#A6A6A6"/>
<stop offset="1" stop-color="#D2D2D2"/>
</linearGradient>
<linearGradient id="paint3_linear_12163_50370" x1="92.1328" y1="52.7768" x2="94.9352" y2="60.3981" gradientUnits="userSpaceOnUse">
<stop stop-color="#BFBFBF"/>
<stop offset="1" stop-color="#959595"/>
</linearGradient>
<linearGradient id="paint4_linear_12163_50370" x1="76.1016" y1="66.5221" x2="76.1139" y2="67.8328" gradientUnits="userSpaceOnUse">
<stop stop-color="#BFBFBF"/>
<stop offset="1" stop-color="#959595"/>
</linearGradient>
<linearGradient id="paint5_linear_12163_50370" x1="56.3175" y1="45.0345" x2="56.3644" y2="58.606" gradientUnits="userSpaceOnUse">
<stop stop-color="#8F8F8F"/>
<stop offset="1" stop-color="white"/>
</linearGradient>
<linearGradient id="paint6_linear_12163_50370" x1="24.7783" y1="41.3987" x2="24.806" y2="42.4467" gradientUnits="userSpaceOnUse">
<stop stop-color="#BFBFBF"/>
<stop offset="1" stop-color="#959595"/>
</linearGradient>
<linearGradient id="paint7_linear_12163_50370" x1="24.7783" y1="44.0657" x2="24.806" y2="45.1137" gradientUnits="userSpaceOnUse">
<stop stop-color="#BFBFBF"/>
<stop offset="1" stop-color="#959595"/>
</linearGradient>
<linearGradient id="paint8_linear_12163_50370" x1="24.7783" y1="46.7327" x2="24.806" y2="47.7806" gradientUnits="userSpaceOnUse">
<stop stop-color="#BFBFBF"/>
<stop offset="1" stop-color="#959595"/>
</linearGradient>
<linearGradient id="paint9_linear_12163_50370" x1="27.3096" y1="40.0276" x2="27.3372" y2="41.0756" gradientUnits="userSpaceOnUse">
<stop stop-color="#BFBFBF"/>
<stop offset="1" stop-color="#959595"/>
</linearGradient>
<linearGradient id="paint10_linear_12163_50370" x1="27.3096" y1="42.6946" x2="27.3372" y2="43.7426" gradientUnits="userSpaceOnUse">
<stop stop-color="#BFBFBF"/>
<stop offset="1" stop-color="#959595"/>
</linearGradient>
<linearGradient id="paint11_linear_12163_50370" x1="27.3096" y1="45.3616" x2="27.3372" y2="46.4096" gradientUnits="userSpaceOnUse">
<stop stop-color="#BFBFBF"/>
<stop offset="1" stop-color="#959595"/>
</linearGradient>
<linearGradient id="paint12_linear_12163_50370" x1="29.8945" y1="39.0481" x2="29.9222" y2="40.0961" gradientUnits="userSpaceOnUse">
<stop stop-color="#BFBFBF"/>
<stop offset="1" stop-color="#959595"/>
</linearGradient>
<linearGradient id="paint13_linear_12163_50370" x1="29.8945" y1="41.7151" x2="29.9222" y2="42.7631" gradientUnits="userSpaceOnUse">
<stop stop-color="#BFBFBF"/>
<stop offset="1" stop-color="#959595"/>
</linearGradient>
<linearGradient id="paint14_linear_12163_50370" x1="29.8945" y1="44.3831" x2="29.9222" y2="45.431" gradientUnits="userSpaceOnUse">
<stop stop-color="#BFBFBF"/>
<stop offset="1" stop-color="#959595"/>
</linearGradient>
<linearGradient id="paint15_linear_12163_50370" x1="-4.60376e-08" y1="0.567646" x2="0.027679" y2="1.61561" gradientUnits="userSpaceOnUse">
<stop stop-color="#BFBFBF"/>
<stop offset="1" stop-color="#959595"/>
</linearGradient>
<linearGradient id="paint16_linear_12163_50370" x1="-4.60376e-08" y1="0.567646" x2="0.027679" y2="1.61561" gradientUnits="userSpaceOnUse">
<stop stop-color="#BFBFBF"/>
<stop offset="1" stop-color="#959595"/>
</linearGradient>
<linearGradient id="paint17_linear_12163_50370" x1="-4.60376e-08" y1="0.567646" x2="0.027679" y2="1.61561" gradientUnits="userSpaceOnUse">
<stop stop-color="#BFBFBF"/>
<stop offset="1" stop-color="#959595"/>
</linearGradient>
<linearGradient id="paint18_linear_12163_50370" x1="-4.60376e-08" y1="0.567646" x2="0.027679" y2="1.61561" gradientUnits="userSpaceOnUse">
<stop stop-color="#BFBFBF"/>
<stop offset="1" stop-color="#959595"/>
</linearGradient>
<linearGradient id="paint19_linear_12163_50370" x1="-4.60376e-08" y1="0.567646" x2="0.027679" y2="1.61561" gradientUnits="userSpaceOnUse">
<stop stop-color="#BFBFBF"/>
<stop offset="1" stop-color="#959595"/>
</linearGradient>
<linearGradient id="paint20_linear_12163_50370" x1="-4.60376e-08" y1="0.567646" x2="0.027679" y2="1.61561" gradientUnits="userSpaceOnUse">
<stop stop-color="#BFBFBF"/>
<stop offset="1" stop-color="#959595"/>
</linearGradient>
<linearGradient id="paint21_linear_12163_50370" x1="-4.60376e-08" y1="0.567646" x2="0.027679" y2="1.61561" gradientUnits="userSpaceOnUse">
<stop stop-color="#BFBFBF"/>
<stop offset="1" stop-color="#959595"/>
</linearGradient>
<linearGradient id="paint22_linear_12163_50370" x1="-4.60376e-08" y1="0.567646" x2="0.027679" y2="1.61561" gradientUnits="userSpaceOnUse">
<stop stop-color="#BFBFBF"/>
<stop offset="1" stop-color="#959595"/>
</linearGradient>
<linearGradient id="paint23_linear_12163_50370" x1="-4.60376e-08" y1="0.567646" x2="0.027679" y2="1.61561" gradientUnits="userSpaceOnUse">
<stop stop-color="#BFBFBF"/>
<stop offset="1" stop-color="#959595"/>
</linearGradient>
<linearGradient id="paint24_linear_12163_50370" x1="56.5568" y1="30.0441" x2="57.1005" y2="78.7627" gradientUnits="userSpaceOnUse">
<stop stop-color="#8F8F8F"/>
<stop offset="1" stop-color="white"/>
</linearGradient>
<linearGradient id="paint25_linear_12163_50370" x1="56.5568" y1="60.5846" x2="56.6927" y2="84.9461" gradientUnits="userSpaceOnUse">
<stop stop-color="#8F8F8F"/>
<stop offset="1" stop-color="white"/>
</linearGradient>
<linearGradient id="paint26_linear_12163_50370" x1="48.2578" y1="36.0515" x2="49.174" y2="46.4577" gradientUnits="userSpaceOnUse">
<stop stop-color="#BFBFBF"/>
<stop offset="1" stop-color="#959595"/>
</linearGradient>
<linearGradient id="paint27_linear_12163_50370" x1="53.3203" y1="36.0515" x2="54.2365" y2="46.4577" gradientUnits="userSpaceOnUse">
<stop stop-color="#BFBFBF"/>
<stop offset="1" stop-color="#959595"/>
</linearGradient>
</defs>
</svg>
