<svg fill="none" viewBox="0 0 240 240">
  <defs>
    <linearGradient id="a" x1="69.271" x2="69.271" y1="124.527" y2="212.073" gradientUnits="userSpaceOnUse">
      <stop stop-color="#fff"/>
      <stop offset="1" stop-color="#fff" stop-opacity="0"/>
    </linearGradient>
    <linearGradient id="b" x1="68.613" x2="68.613" y1="145.41" y2="176.355" gradientUnits="userSpaceOnUse">
      <stop stop-color="#fff"/>
      <stop offset="1" stop-color="#fff" stop-opacity="0"/>
    </linearGradient>
    <linearGradient id="c" x1="171.415" x2="171.415" y1="124.527" y2="212.073" gradientUnits="userSpaceOnUse">
      <stop stop-color="#fff"/>
      <stop offset="1" stop-color="#fff" stop-opacity="0"/>
    </linearGradient>
    <linearGradient id="d" x1="172.074" x2="172.074" y1="145.41" y2="176.355" gradientUnits="userSpaceOnUse">
      <stop stop-color="#fff"/>
      <stop offset="1" stop-color="#fff" stop-opacity="0"/>
    </linearGradient>
    <linearGradient id="e" x1="119.999" x2="119.999" y1="51.243" y2="147.368" gradientUnits="userSpaceOnUse">
      <stop stop-color="#fff"/>
      <stop offset="1" stop-color="#fff" stop-opacity="0"/>
    </linearGradient>
  </defs>
  <g opacity=".4">
    <path stroke="url(#a)" stroke-linecap="round" stroke-linejoin="round" stroke-width="2.231" d="M75.142 212.073a159.843 159.843 0 0 0-13.126-87.546"/>
    <path fill="#fff" fill-rule="evenodd" d="M71.058 19.592a60.33 60.33 0 0 1 41.599-16.548h15.504a60.331 60.331 0 0 1 41.599 16.548l.003.002a60.37 60.37 0 0 1 18.926 41.21l.001.003c.046.941.069 1.889.069 2.842v28.09a1.115 1.115 0 1 0 2.231 0v-28.09c0-.989-.024-1.972-.072-2.95a62.602 62.602 0 0 0-19.624-42.728A62.563 62.563 0 0 0 128.158.813H112.66A62.562 62.562 0 0 0 69.524 17.97 62.603 62.603 0 0 0 49.9 60.7a60.1 60.1 0 0 0-.072 2.95v28.089a1.116 1.116 0 1 0 2.231 0v-28.09c0-.953.023-1.9.07-2.842v-.004a60.37 60.37 0 0 1 18.926-41.209l.003-.002Z" clip-rule="evenodd"/>
    <path stroke="#fff" stroke-linecap="round" stroke-linejoin="round" stroke-width="2.231" d="M61.384 145.413c-.146-.222-.298-.445-.439-.667"/>
    <path stroke="url(#b)" stroke-linecap="round" stroke-linejoin="round" stroke-width="2.231" d="M61.383 145.41a61.391 61.391 0 0 0 14.46 30.945"/>
    <path stroke="#fff" stroke-linecap="round" stroke-linejoin="round" stroke-width="2.231" d="M61.098 138.16c1.45 3.687.28 7.304-1.95 8.404-2.229 1.1-5.266-.632-6.764-2.154-1.972-2.001-1.644-3.827-2.873-7.607-1.58-4.846-3.155-4.974-6.045-10.768a51.033 51.033 0 0 1-3.898-10.966c-1.62-6.958-1.252-12.061-.924-16.093.585-6.964 2.34-8.351 2.972-8.82 2.107-1.562 5.548-1.919 7.895-.204 2.809 2.048 3.587 6.718 1.024 10.457"/>
    <path stroke="#fff" stroke-linecap="round" stroke-linejoin="round" stroke-width="2.231" d="M48.283 98.898a31.28 31.28 0 0 0-2.458 13.325c.48 12.325 8.35 20.336 10.451 22.349"/>
    <path stroke="url(#c)" stroke-linecap="round" stroke-linejoin="round" stroke-width="2.231" d="M165.552 212.073a159.849 159.849 0 0 1 13.114-87.546"/>
    <path stroke="#fff" stroke-linecap="round" stroke-linejoin="round" stroke-width="2.231" d="M179.751 144.746c-.14.222-.292.445-.439.667"/>
    <path stroke="url(#d)" stroke-linecap="round" stroke-linejoin="round" stroke-width="2.231" d="M164.844 176.355a61.395 61.395 0 0 0 14.46-30.945"/>
    <path stroke="#fff" stroke-linecap="round" stroke-linejoin="round" stroke-width="2.231" d="M179.594 138.16c-1.452 3.687-.281 7.304 1.948 8.404 2.23 1.1 5.267-.632 6.765-2.154 1.972-2.001 1.645-3.827 2.874-7.607 1.58-4.846 3.154-4.974 6.045-10.768a51.054 51.054 0 0 0 3.897-10.966c1.621-6.958 1.252-12.061.925-16.093-.585-6.964-2.341-8.351-2.973-8.82-2.107-1.562-5.548-1.919-7.894-.204-2.809 2.048-3.588 6.718-1.024 10.457"/>
    <path stroke="#fff" stroke-linecap="round" stroke-linejoin="round" stroke-width="2.231" d="M192.408 98.898a31.283 31.283 0 0 1 2.458 13.325c-.48 12.325-8.351 20.336-10.452 22.349"/>
  </g>
  <path fill="url(#e)" d="M189.538 55.004h1.062a1.062 1.062 0 0 0-2.077-.315l1.015.315Zm-139.077.004 1.014-.315a1.062 1.062 0 0 0-2.076.315h1.062Zm0 30.778h-1.062c0 .587.475 1.062 1.062 1.062v-1.062Zm.033 0 1.06-.079a1.062 1.062 0 0 0-1.06-.983v1.062Zm139.011 0v-1.062c-.557 0-1.019.429-1.06.983l1.06.079Zm.033 0v1.062c.586 0 1.062-.475 1.062-1.062h-1.062Zm-1.015-31.097c-1.023 3.299-3.521 6.506-7.359 9.475-3.832 2.964-8.938 5.641-15.055 7.892-12.233 4.501-28.381 7.251-46.11 7.251v2.125c17.929 0 34.332-2.778 46.843-7.382 6.256-2.302 11.571-5.072 15.622-8.206 4.045-3.129 6.892-6.67 8.088-10.525l-2.029-.63Zm-68.524 24.618c-17.728 0-33.874-2.75-46.107-7.25-6.117-2.25-11.223-4.927-15.055-7.89-3.839-2.969-6.337-6.176-7.362-9.474l-2.029.63c1.198 3.856 4.046 7.396 8.091 10.524 4.052 3.133 9.366 5.903 15.622 8.204 12.511 4.603 28.913 7.38 46.84 7.38v-2.124Zm-70.6-24.299v29.88h2.124v-29.88H49.4Zm0 29.88v.898h2.124v-.898H49.4Zm1.062 1.96h.033v-2.124h-.033v2.124Zm-1.026-.983c.313 4.215 2.636 8.117 6.387 11.563 3.75 3.445 8.995 6.498 15.33 9.04 12.677 5.084 29.906 8.192 48.847 8.192v-2.125c-18.736 0-35.685-3.077-48.055-8.039-6.187-2.482-11.183-5.416-14.685-8.633-3.502-3.217-5.445-6.651-5.705-10.156l-2.119.158Zm70.564 28.795c18.942 0 36.171-3.108 48.847-8.192 6.336-2.542 11.58-5.595 15.331-9.04 3.75-3.446 6.073-7.348 6.387-11.563l-2.119-.158c-.26 3.505-2.203 6.94-5.705 10.156-3.502 3.217-8.498 6.151-14.685 8.633-12.37 4.962-29.32 8.039-48.056 8.039v2.125Zm69.506-27.812h.033v-2.124h-.033v2.124Zm1.095-1.062v-.898h-2.124v.898h2.124Zm0-.898V55.004h-2.124v29.884h2.124Z"/>
  <circle cx="100.408" cy="96.306" r="3.463"/>
  <circle cx="140.877" cy="96.306" r="3.463"/>
  <circle cx="66.525" cy="85.346" r="3.463"/>
  <circle r="3.463" transform="matrix(-1 0 0 1 178.514 85.346)"/>
</svg>
