<svg width="20" height="20" viewBox="0 0 20 20" fill="none" xmlns="http://www.w3.org/2000/svg">
<path d="M14.4716 17.9993C14.84 18.4108 15.4722 18.4457 15.8837 18.0773C16.2952 17.7089 16.33 17.0767 15.9616 16.6652L14.4716 17.9993ZM4.0382 16.6652C3.66979 17.0767 3.70469 17.7089 4.11614 18.0773C4.52759 18.4457 5.15979 18.4108 5.5282 17.9993L4.0382 16.6652ZM10 18C5.58172 18 2 14.4183 2 10H0C0 15.5228 4.47715 20 10 20V18ZM2 10C2 5.58172 5.58172 2 10 2V0C4.47715 0 0 4.47715 0 10H2ZM10 2C14.4183 2 18 5.58172 18 10H20C20 4.47715 15.5228 0 10 0V2ZM18 10C18 14.4183 14.4183 18 10 18V20C15.5228 20 20 15.5228 20 10H18ZM15.9616 16.6652C14.4982 15.0308 12.3688 14 10 14V16C11.7765 16 13.3716 16.7708 14.4716 17.9993L15.9616 16.6652ZM10 14C7.63118 14 5.50161 15.0308 4.0382 16.6652L5.5282 17.9993C6.62823 16.7708 8.22351 16 10 16V14ZM10 11C8.89543 11 8 10.1046 8 9H6C6 11.2091 7.79086 13 10 13V11ZM8 9C8 7.89543 8.89543 7 10 7V5C7.79086 5 6 6.79086 6 9H8ZM10 7C11.1046 7 12 7.89543 12 9H14C14 6.79086 12.2091 5 10 5V7ZM12 9C12 10.1046 11.1046 11 10 11V13C12.2091 13 14 11.2091 14 9H12Z" fill="white"/>
</svg>
