<svg width="173" height="187" viewBox="0 0 173 187" fill="none" xmlns="http://www.w3.org/2000/svg">
<defs>
<linearGradient id="paint0_linear_555_3406" x1="32.3574" y1="71.7456" x2="46.596" y2="122.796" gradientUnits="userSpaceOnUse">
<stop stop-color="white"/>
<stop offset="1" stop-color="white" stop-opacity="0"/>
</linearGradient>
<linearGradient id="paint1_linear_555_3406" x1="20.2743" y1="74.1523" x2="35.0864" y2="127.259" gradientUnits="userSpaceOnUse">
<stop stop-color="white"/>
<stop offset="1" stop-color="white" stop-opacity="0"/>
</linearGradient>
<linearGradient id="paint2_linear_555_3406" x1="38.1305" y1="22.8384" x2="38.1305" y2="71.32" gradientUnits="userSpaceOnUse">
<stop stop-color="white"/>
<stop offset="1" stop-color="white" stop-opacity="0"/>
</linearGradient>
<linearGradient id="paint3_linear_555_3406" x1="30.2138" y1="18.4321" x2="30.2138" y2="88.9509" gradientUnits="userSpaceOnUse">
<stop stop-color="white"/>
<stop offset="1" stop-color="white" stop-opacity="0"/>
</linearGradient>
<linearGradient id="paint4_linear_555_3406" x1="140.045" y1="71.7456" x2="125.806" y2="122.796" gradientUnits="userSpaceOnUse">
<stop stop-color="white"/>
<stop offset="1" stop-color="white" stop-opacity="0"/>
</linearGradient>
<linearGradient id="paint5_linear_555_3406" x1="152.128" y1="74.1523" x2="137.316" y2="127.259" gradientUnits="userSpaceOnUse">
<stop stop-color="white"/>
<stop offset="1" stop-color="white" stop-opacity="0"/>
</linearGradient>
<linearGradient id="paint6_linear_555_3406" x1="134.272" y1="22.8384" x2="134.272" y2="71.32" gradientUnits="userSpaceOnUse">
<stop stop-color="white"/>
<stop offset="1" stop-color="white" stop-opacity="0"/>
</linearGradient>
<linearGradient id="paint7_linear_555_3406" x1="142.189" y1="18.4321" x2="142.189" y2="88.9509" gradientUnits="userSpaceOnUse">
<stop stop-color="white"/>
<stop offset="1" stop-color="white" stop-opacity="0"/>
</linearGradient>
<linearGradient id="paint8_linear_555_3406" x1="119.772" y1="-4.45479" x2="119.772" y2="37.8516" gradientUnits="userSpaceOnUse">
<stop stop-color="white"/>
<stop offset="1" stop-color="white" stop-opacity="0"/>
</linearGradient>
</defs>
<g opacity="0.4">
<path d="M128.988 118.581C128.888 118.74 128.779 118.899 128.674 119.058" stroke="white" stroke-width="0.615488" stroke-linecap="round" stroke-linejoin="round"/>
</g>
<path d="M35.2244 76.2209C34.0537 73.2302 33.1622 71.5211 32.7459 71.6372C31.7018 71.9284 34.0428 83.5926 37.9747 97.6899C41.9066 111.787 45.9404 122.979 46.9846 122.688C47.3368 122.59 47.3038 121.197 46.9545 118.854" stroke="url(#paint0_linear_555_3406)" stroke-width="2.29875" stroke-linecap="round" stroke-linejoin="round"/>
<path d="M20.9665 73.9594C14.7962 79.6891 14.0528 90.0479 18.019 104.268C21.9852 118.489 30.0403 128.667 36.0104 127.002L44.7663 123.763" stroke="url(#paint1_linear_555_3406)" stroke-width="2.29875" stroke-linecap="round" stroke-linejoin="round"/>
<path d="M31.7839 71.32C29.6683 70.0022 27.5527 70.3839 27.5527 66.9353C27.5527 52.7707 33.2846 34.3356 48.7084 22.8384" stroke="url(#paint2_linear_555_3406)" stroke-width="2.29875" stroke-linecap="round" stroke-linejoin="round"/>
<path d="M15.2285 88.9509C16.11 71.6149 22.2367 78.1743 22.2367 65.1727C22.2367 50.213 28.4778 30.8194 45.199 18.4321" stroke="url(#paint3_linear_555_3406)" stroke-width="2.29875" stroke-linecap="round" stroke-linejoin="round"/>
<path d="M137.178 76.2209C138.349 73.2302 139.24 71.5211 139.656 71.6372C140.701 71.9284 138.36 83.5926 134.428 97.6899C130.496 111.787 126.462 122.979 125.418 122.688C125.066 122.59 125.099 121.197 125.448 118.854" stroke="url(#paint4_linear_555_3406)" stroke-width="2.29875" stroke-linecap="round" stroke-linejoin="round"/>
<path d="M151.436 73.9594C157.606 79.6891 158.35 90.0479 154.383 104.268C150.417 118.489 142.362 128.667 136.392 127.002L127.636 123.763" stroke="url(#paint5_linear_555_3406)" stroke-width="2.29875" stroke-linecap="round" stroke-linejoin="round"/>
<path d="M140.618 71.32C142.734 70.0022 144.85 70.3839 144.85 66.9353C144.85 52.7707 139.118 34.3356 123.694 22.8384" stroke="url(#paint6_linear_555_3406)" stroke-width="2.29875" stroke-linecap="round" stroke-linejoin="round"/>
<path d="M157.174 88.9509C156.292 71.6149 150.166 78.1743 150.166 65.1727C150.166 50.213 143.925 30.8194 127.203 18.4321" stroke="url(#paint7_linear_555_3406)" stroke-width="2.29875" stroke-linecap="round" stroke-linejoin="round"/>
<path d="M54.2913 6.56633L54.4801 6.79046L54.2913 6.56633ZM68.2721 1.32415L68.2773 1.61711L68.2721 1.32415ZM44.3891 14.9051L44.2004 14.6809H44.2004L44.3891 14.9051ZM44.262 15.7973L44.5058 15.6348H44.5058L44.262 15.7973ZM48.8018 22.607L48.558 22.7695H48.558L48.8018 22.607ZM49.5769 22.757L49.4113 22.5152L49.5769 22.757ZM79.603 12.7786L79.5909 12.4859L79.603 12.7786ZM86.2716 12.5033L86.2837 12.2106C86.2756 12.2103 86.2676 12.2103 86.2595 12.2106L86.2716 12.5033ZM92.9402 12.7786L92.9523 12.4859L92.9402 12.7786ZM122.966 22.757L122.801 22.9988L122.801 22.9988L122.966 22.757ZM123.741 22.607L123.498 22.4445L123.741 22.607ZM128.281 15.7973L128.037 15.6348V15.6348L128.281 15.7973ZM128.154 14.9051L128.343 14.6809L128.154 14.9051ZM118.252 6.56633L118.063 6.79046L118.252 6.56633ZM104.271 1.32415L104.266 1.61711L104.271 1.32415ZM86.7166 1.01564H86.4236C86.4236 1.17545 86.5516 1.30579 86.7114 1.3086L86.7166 1.01564ZM86.7166 1H87.0096C87.0096 0.921398 86.978 0.846092 86.9219 0.791002C86.8658 0.735912 86.79 0.705659 86.7114 0.707041L86.7166 1ZM86.2716 1.00782L86.2665 1.30096L86.2768 1.30078L86.2716 1.00782ZM85.8267 1L85.8318 0.707041C85.7532 0.705659 85.6774 0.735912 85.6213 0.791002C85.5652 0.846092 85.5336 0.921398 85.5336 1L85.8267 1ZM85.8267 1.01564L85.8318 1.3086C85.9916 1.30579 86.1197 1.17545 86.1197 1.01564H85.8267ZM54.4801 6.79046C58.3486 3.53276 63.2206 1.70598 68.2773 1.61711L68.267 1.03119C63.0757 1.12242 58.0741 2.99782 54.1026 6.34221L54.4801 6.79046ZM44.5778 15.1292L54.4801 6.79046L54.1026 6.34221L44.2004 14.6809L44.5778 15.1292ZM44.5058 15.6348C44.3976 15.4725 44.4286 15.2548 44.5778 15.1292L44.2004 14.6809C43.823 14.9987 43.7446 15.5493 44.0182 15.9599L44.5058 15.6348ZM49.0456 22.4445L44.5058 15.6348L44.0182 15.9599L48.558 22.7695L49.0456 22.4445ZM49.4113 22.5152C49.291 22.5976 49.1265 22.5658 49.0456 22.4445L48.558 22.7695C48.82 23.1625 49.3527 23.2656 49.7424 22.9988L49.4113 22.5152ZM79.5909 12.4859C68.7894 12.9317 58.3312 16.4072 49.4113 22.5152L49.7424 22.9988C58.5716 16.9529 68.9234 13.5127 79.6151 13.0714L79.5909 12.4859ZM86.2595 12.2106L79.5909 12.4859L79.6151 13.0714L86.2837 12.7961L86.2595 12.2106ZM86.2595 12.7961L92.9281 13.0714L92.9523 12.4859L86.2837 12.2106L86.2595 12.7961ZM92.9281 13.0714C103.62 13.5127 113.972 16.9529 122.801 22.9988L123.132 22.5152C114.212 16.4072 103.754 12.9317 92.9523 12.4859L92.9281 13.0714ZM122.801 22.9988C123.191 23.2656 123.723 23.1625 123.985 22.7695L123.498 22.4445C123.417 22.5658 123.252 22.5976 123.132 22.5152L122.801 22.9988ZM123.985 22.7695L128.525 15.9599L128.037 15.6348L123.498 22.4445L123.985 22.7695ZM128.525 15.9599C128.799 15.5493 128.72 14.9987 128.343 14.6809L127.965 15.1292C128.115 15.2548 128.146 15.4725 128.037 15.6348L128.525 15.9599ZM128.343 14.6809L118.441 6.34221L118.063 6.79046L127.965 15.1292L128.343 14.6809ZM118.441 6.34221C114.469 2.99782 109.468 1.12242 104.276 1.03119L104.266 1.61711C109.323 1.70598 114.195 3.53276 118.063 6.79046L118.441 6.34221ZM104.276 1.03119L86.7217 0.72268L86.7114 1.3086L104.266 1.61711L104.276 1.03119ZM86.4236 1V1.01564H87.0096V1H86.4236ZM86.2768 1.30078L86.7217 1.29296L86.7114 0.707041L86.2665 0.71486L86.2768 1.30078ZM86.2768 0.71486L85.8318 0.707041L85.8215 1.29296L86.2665 1.30078L86.2768 0.71486ZM85.5336 1V1.01564H86.1197V1H85.5336ZM68.2773 1.61711L85.8318 1.3086L85.8215 0.72268L68.267 1.03119L68.2773 1.61711Z" fill="url(#paint8_linear_555_3406)"/>
</svg>
