<svg width="16" height="16" viewBox="0 0 16 16" fill="none" xmlns="http://www.w3.org/2000/svg">
<path d="M3.33203 11.5558V4.44466C3.33203 3.85828 3.33203 3.56476 3.45543 3.39127C3.56312 3.23985 3.72912 3.14043 3.91341 3.11666C4.12449 3.08944 4.38337 3.2275 4.90039 3.50325L11.5671 7.0588L11.5695 7.05988C12.1409 7.36461 12.4267 7.51705 12.5204 7.72022C12.6022 7.89746 12.6022 8.10205 12.5204 8.27929C12.4265 8.48275 12.14 8.63581 11.5671 8.9414L4.90039 12.497C4.383 12.7729 4.12456 12.9104 3.91341 12.8832C3.72912 12.8594 3.56312 12.76 3.45543 12.6086C3.33203 12.4351 3.33203 12.1421 3.33203 11.5558Z" stroke="#8BFF89" stroke-width="1.33333" stroke-linecap="round" stroke-linejoin="round"/>
</svg>
