<svg width="22" height="22" viewBox="0 0 22 22" fill="none" xmlns="http://www.w3.org/2000/svg">
<path d="M18.9877 7.72122L18.5015 8.5951L18.5015 8.5951L18.9877 7.72122ZM19.3539 7.92495L19.84 7.05107L19.84 7.05107L19.3539 7.92495ZM20.9984 10.7141L21.9984 10.7119V10.7119L20.9984 10.7141ZM20.9997 11.2763L19.9997 11.2785V11.2785L20.9997 11.2763ZM19.3507 14.0824L19.8354 14.9571V14.9571L19.3507 14.0824ZM18.9891 14.2828L18.5044 13.4081V13.4081L18.9891 14.2828ZM17.8383 16.2744L18.8381 16.2576L17.8383 16.2744ZM17.8454 16.6991L16.8455 16.7159L17.8454 16.6991ZM16.2522 19.5205L16.7541 20.3854H16.7542L16.2522 19.5205ZM15.7645 19.8036L15.2626 18.9387H15.2625L15.7645 19.8036ZM12.5112 19.7795L11.9965 20.6368L11.9965 20.6368L12.5112 19.7795ZM12.1551 19.5657L12.6699 18.7083L12.6699 18.7083L12.1551 19.5657ZM9.85321 19.5644L9.33949 18.7064L9.85321 19.5644ZM9.49938 19.7762L10.0131 20.6342L9.49938 19.7762ZM6.25774 19.8035L5.75845 20.6699L6.25774 19.8035ZM5.76403 19.519L6.26332 18.6525L5.76403 19.519ZM4.16247 16.6923L5.16233 16.7092L4.16247 16.6923ZM4.16935 16.2848L3.16949 16.2679L4.16935 16.2848ZM3.01202 14.278L2.52588 15.1519H2.52588L3.01202 14.278ZM2.65368 14.0786L3.13983 13.2048H3.13982L2.65368 14.0786ZM1.00945 11.2896L2.00945 11.2873L1.00945 11.2896ZM1.00817 10.7274L0.00817484 10.7297L1.00817 10.7274ZM2.6571 7.92123L2.17238 7.04655L2.6571 7.92123ZM3.01866 7.72086L3.50338 8.59553L3.01866 7.72086ZM4.16913 5.72926L3.16927 5.74608L4.16913 5.72926ZM4.16198 5.3046L5.16184 5.28778V5.28777L4.16198 5.3046ZM5.75524 2.48314L5.25327 1.61825V1.61825L5.75524 2.48314ZM6.2429 2.20011L6.74487 3.06499L6.2429 2.20011ZM9.49645 2.22415L10.0112 1.36679V1.36679L9.49645 2.22415ZM9.85253 2.43792L9.33782 3.29529L9.85253 2.43792ZM12.1542 2.43931L11.6404 1.58135V1.58135L12.1542 2.43931ZM12.508 2.22745L13.0217 3.08541V3.08541L12.508 2.22745ZM15.7494 2.20023L15.2501 3.06667L15.7494 2.20023ZM16.2432 2.48479L16.7425 1.61835L16.7425 1.61835L16.2432 2.48479ZM17.8453 5.31119L16.8454 5.29437V5.29437L17.8453 5.31119ZM17.8383 5.72819L18.8381 5.74501V5.74501L17.8383 5.72819ZM17.837 5.85834L18.8368 5.84305L17.837 5.85834ZM18.1378 6.88512L19.0037 6.38493L18.1378 6.88512ZM18.0736 6.77201L17.1921 7.24414L18.0736 6.77201ZM17.3498 3.23904L18.0959 2.57324V2.57324L17.3498 3.23904ZM17.7665 3.97464L18.721 3.67661L17.7665 3.97464ZM13.7019 1.62967L13.9209 2.60539L13.7019 1.62967ZM14.5453 1.62271L14.3426 2.60196V2.60196L14.5453 1.62271ZM11.1342 2.75614L11.1021 1.75665L11.1342 2.75614ZM12.0419 2.50511L12.5278 3.37911L12.0419 2.50511ZM9.96459 2.50404L9.47771 3.37751L9.96459 2.50404ZM10.8744 2.75614L10.9065 1.75665L10.8744 2.75614ZM7.45073 1.61649L7.65519 2.59536L7.45073 1.61649ZM8.29772 1.62271L8.0788 2.59846L8.29772 1.62271ZM4.24055 3.9722L5.19538 4.26934L4.24055 3.9722ZM4.65514 3.23811L3.90757 2.57393L4.65514 3.23811ZM3.86999 6.88427L4.7359 7.38447L3.86999 6.88427ZM3.93319 6.77286L3.05189 6.3003L3.93319 6.77286ZM4.17046 5.85737L5.17035 5.87217L4.17046 5.85737ZM3.13004 7.65787L2.61789 6.79897L3.13004 7.65787ZM3.80505 6.99466L2.95539 6.46732H2.95539L3.80505 6.99466ZM1.1066 9.38907L2.05651 9.70158L1.1066 9.38907ZM1.536 8.65865L2.27133 9.33636H2.27133L1.536 8.65865ZM1.5404 13.3445L0.805221 14.0224H0.805221L1.5404 13.3445ZM1.1126 12.619L0.163534 12.934L1.1126 12.619ZM3.87174 15.1276L4.73962 14.6308H4.73962L3.87174 15.1276ZM3.80163 15.0075L2.95131 15.5338L3.80163 15.0075ZM3.13304 14.3466L2.61718 15.2033L3.13304 14.3466ZM4.17047 16.1474L3.17062 16.1644L4.17047 16.1474ZM3.93919 15.2474L4.82342 14.7803L3.93919 15.2474ZM4.65807 18.7646L3.91194 19.4303L4.65807 18.7646ZM4.24104 18.029L5.19561 17.731L4.24104 18.029ZM8.30554 20.3739L8.52457 21.3497L8.30554 20.3739ZM7.46219 20.381L7.25952 21.3602L7.46219 20.381ZM10.8729 19.2475L10.8409 18.248L10.8408 18.248L10.8729 19.2475ZM9.96539 19.4986L10.4513 20.3726L9.96539 19.4986ZM12.0428 19.4995L12.5297 18.6261L12.0428 19.4995ZM11.1335 19.2475L11.1657 18.248H11.1657L11.1335 19.2475ZM14.5565 20.3872L14.761 21.3661L14.5565 20.3872ZM13.71 20.3808L13.929 19.4051L13.71 20.3808ZM17.767 18.0315L18.7218 18.3286L17.767 18.0315ZM17.3523 18.7655L18.0999 19.4297L17.3523 18.7655ZM18.1373 15.1194L17.2714 14.6192L18.1373 15.1194ZM18.0741 15.2308L17.1928 14.7583L18.0741 15.2308ZM17.837 16.1464L16.8371 16.1316L17.837 16.1464ZM18.8773 14.3459L19.3895 15.2048L18.8773 14.3459ZM18.2025 15.0089L19.0522 15.5363L18.2025 15.0089ZM20.9008 12.6146L21.8507 12.9271L20.9008 12.6146ZM20.4716 13.345L19.7363 12.6673L20.4716 13.345ZM20.467 8.65911L21.2021 7.98123V7.98123L20.467 8.65911ZM20.8949 9.38468L19.9458 9.69974L20.8949 9.38468ZM18.8749 7.65726L19.3888 6.7994L18.8749 7.65726ZM18.2038 6.99684L17.3544 7.52451L18.2038 6.99684ZM11.0038 14.0019C9.34692 14.0019 8.00378 12.6587 8.00378 11.0019H6.00378C6.00378 13.7633 8.24235 16.0019 11.0038 16.0019V14.0019ZM8.00378 11.0019C8.00378 9.34501 9.34692 8.00186 11.0038 8.00186V6.00186C8.24235 6.00186 6.00378 8.24044 6.00378 11.0019H8.00378ZM11.0038 8.00186C12.6606 8.00186 14.0038 9.34501 14.0038 11.0019H16.0038C16.0038 8.24044 13.7652 6.00186 11.0038 6.00186V8.00186ZM14.0038 11.0019C14.0038 12.6587 12.6606 14.0019 11.0038 14.0019V16.0019C13.7652 16.0019 16.0038 13.7633 16.0038 11.0019H14.0038ZM18.5015 8.5951L18.8677 8.79883L19.84 7.05107L19.4738 6.84734L18.5015 8.5951ZM19.9984 10.7164L19.9997 11.2785L21.9997 11.274L21.9984 10.7119L19.9984 10.7164ZM18.866 13.2078L18.5044 13.4081L19.4738 15.1575L19.8354 14.9571L18.866 13.2078ZM16.8384 16.2913L16.8455 16.7159L18.8453 16.6823L18.8381 16.2576L16.8384 16.2913ZM15.7502 18.6557L15.2626 18.9387L16.2665 20.6685L16.7541 20.3854L15.7502 18.6557ZM13.0259 18.9221L12.6699 18.7083L11.6404 20.4231L11.9965 20.6368L13.0259 18.9221ZM9.33949 18.7064L8.98566 18.9183L10.0131 20.6342L10.3669 20.4223L9.33949 18.7064ZM6.75702 18.937L6.26332 18.6525L5.26475 20.3854L5.75845 20.6699L6.75702 18.937ZM5.16233 16.7092L5.16921 16.3017L3.16949 16.2679L3.16261 16.6755L5.16233 16.7092ZM3.49817 13.4041L3.13983 13.2048L2.16753 14.9525L2.52588 15.1519L3.49817 13.4041ZM2.00945 11.2873L2.00817 10.7252L0.00817484 10.7297L0.00945163 11.2918L2.00945 11.2873ZM3.14181 8.7959L3.50338 8.59553L2.53395 6.84619L2.17238 7.04655L3.14181 8.7959ZM5.16898 5.71244L5.16184 5.28778L3.16212 5.32142L3.16927 5.74608L5.16898 5.71244ZM6.25721 3.34802L6.74487 3.06499L5.74093 1.33522L5.25327 1.61825L6.25721 3.34802ZM8.98174 3.08151L9.33782 3.29529L10.3672 1.58056L10.0112 1.36679L8.98174 3.08151ZM12.6679 3.29727L13.0217 3.08541L11.9943 1.36949L11.6404 1.58135L12.6679 3.29727ZM15.2501 3.06667L15.7439 3.35122L16.7425 1.61835L16.2487 1.33379L15.2501 3.06667ZM16.8454 5.29437L16.8384 5.71137L18.8381 5.74501L18.8451 5.32801L16.8454 5.29437ZM16.8384 5.71137C16.8375 5.7669 16.8363 5.82108 16.8371 5.87362L18.8368 5.84305C18.8367 5.83143 18.8369 5.8198 18.8381 5.74501L16.8384 5.71137ZM19.0037 6.38493C18.968 6.3231 18.961 6.31075 18.9551 6.29987L17.1921 7.24414C17.2165 7.28983 17.2423 7.33421 17.2718 7.38531L19.0037 6.38493ZM16.8371 5.87362C16.8444 6.35211 16.966 6.82203 17.1921 7.24414L18.9551 6.29987C18.8799 6.15934 18.8393 6.00274 18.8368 5.84305L16.8371 5.87362ZM15.7439 3.35122C16.3986 3.72846 16.522 3.81331 16.6037 3.90485L18.0959 2.57324C17.7486 2.18397 17.2768 1.92627 16.7425 1.61835L15.7439 3.35122ZM18.8451 5.32801C18.8555 4.71067 18.8765 4.17446 18.721 3.67661L16.8119 4.27267C16.8485 4.38993 16.8581 4.53964 16.8454 5.29437L18.8451 5.32801ZM16.6037 3.90485C16.6983 4.01086 16.7693 4.13622 16.8119 4.27267L18.721 3.67661C18.5937 3.26889 18.3809 2.89257 18.0959 2.57324L16.6037 3.90485ZM13.0217 3.08541C13.6683 2.69828 13.8015 2.63219 13.9209 2.60539L13.4828 0.653955C12.975 0.767958 12.5218 1.05361 11.9943 1.36949L13.0217 3.08541ZM16.2487 1.33379C15.7151 1.02633 15.2574 0.748909 14.748 0.643466L14.3426 2.60196C14.4626 2.6268 14.5979 2.69086 15.2501 3.06667L16.2487 1.33379ZM13.9209 2.60539C14.0594 2.5743 14.2031 2.57309 14.3426 2.60196L14.748 0.643466C14.3305 0.557072 13.8992 0.560476 13.4828 0.653955L13.9209 2.60539ZM11.0043 3.75716C11.0633 3.75716 11.1145 3.75728 11.1663 3.75562L11.1021 1.75665C11.0898 1.75705 11.0757 1.75717 11.0043 1.75717V3.75716ZM11.6404 1.58135C11.5837 1.61534 11.5681 1.62432 11.5559 1.63111L12.5278 3.37911C12.5717 3.35472 12.6128 3.33028 12.6679 3.29727L11.6404 1.58135ZM11.1663 3.75562C11.6438 3.7403 12.1105 3.61112 12.5278 3.37911L11.5559 1.63111C11.4167 1.70853 11.2611 1.75155 11.1021 1.75665L11.1663 3.75562ZM9.33782 3.29529C9.38768 3.32522 9.43214 3.3521 9.47771 3.37751L10.4515 1.63057C10.4409 1.62466 10.4295 1.61794 10.3672 1.58056L9.33782 3.29529ZM11.0043 1.75717C10.9326 1.75717 10.9189 1.75705 10.9065 1.75665L10.8422 3.75562C10.8941 3.75729 10.9451 3.75716 11.0043 3.75716V1.75717ZM9.47771 3.37751C9.89582 3.61057 10.3639 3.74023 10.8422 3.75562L10.9065 1.75665C10.747 1.75152 10.5908 1.70823 10.4515 1.63057L9.47771 3.37751ZM6.74487 3.06499C7.3991 2.68529 7.53479 2.62051 7.65519 2.59536L7.24628 0.637612C6.73486 0.744431 6.27577 1.02481 5.74093 1.33522L6.74487 3.06499ZM10.0112 1.36679C9.48134 1.04871 9.02652 0.761368 8.51665 0.646971L8.0788 2.59846C8.19872 2.62536 8.33285 2.69196 8.98174 3.08151L10.0112 1.36679ZM7.65519 2.59536C7.79502 2.56616 7.93961 2.56723 8.0788 2.59846L8.51665 0.646971C8.09869 0.553196 7.66538 0.550075 7.24628 0.637612L7.65519 2.59536ZM5.16184 5.28777C5.1492 4.53634 5.15893 4.38647 5.19538 4.26934L3.28572 3.67506C3.13126 4.1714 3.15176 4.70538 3.16212 5.32142L5.16184 5.28777ZM5.25327 1.61825C4.72083 1.92728 4.25291 2.18524 3.90757 2.57393L5.40272 3.9023C5.48411 3.81068 5.60678 3.72553 6.25721 3.34802L5.25327 1.61825ZM5.19538 4.26934C5.23757 4.13379 5.30824 4.00863 5.40272 3.9023L3.90757 2.57393C3.62452 2.89252 3.41243 3.26788 3.28572 3.67506L5.19538 4.26934ZM4.7359 7.38447C4.76501 7.33407 4.79036 7.29043 4.81449 7.24542L3.05189 6.3003C3.04614 6.31103 3.03928 6.32314 3.00407 6.38408L4.7359 7.38447ZM3.16927 5.74608C3.17054 5.82146 3.17074 5.83135 3.17057 5.84257L5.17035 5.87217C5.17112 5.82014 5.16988 5.76567 5.16898 5.71244L3.16927 5.74608ZM4.81449 7.24542C5.04107 6.82285 5.16325 6.35197 5.17035 5.87217L3.17057 5.84257C3.16821 6.00225 3.12754 6.15922 3.05189 6.3003L4.81449 7.24542ZM3.50338 8.59553C3.5568 8.56593 3.59897 8.54254 3.64219 8.51677L2.61789 6.79897C2.60674 6.80562 2.5931 6.8134 2.53395 6.84619L3.50338 8.59553ZM3.00407 6.38408C2.96908 6.44467 2.96188 6.45687 2.95539 6.46732L4.6547 7.522C4.68159 7.47868 4.70654 7.4353 4.7359 7.38447L3.00407 6.38408ZM3.64219 8.51677C4.05453 8.2709 4.40169 7.92965 4.6547 7.522L2.95539 6.46732C2.87095 6.60338 2.75517 6.71712 2.61789 6.79897L3.64219 8.51677ZM2.00817 10.7252C2.00645 9.96796 2.01808 9.81838 2.05651 9.70158L0.156683 9.07656C-0.00669312 9.57316 0.00677037 10.1114 0.00817484 10.7297L2.00817 10.7252ZM2.17238 7.04655C1.63126 7.34643 1.15492 7.59658 0.800679 7.98093L2.27133 9.33636C2.35471 9.24589 2.4798 9.16276 3.14181 8.7959L2.17238 7.04655ZM2.05651 9.70158C2.101 9.56635 2.17424 9.44171 2.27133 9.33636L0.800679 7.98093C0.510626 8.29564 0.290717 8.66915 0.156683 9.07656L2.05651 9.70158ZM3.13982 13.2048C2.48261 12.8392 2.35846 12.7565 2.27558 12.6666L0.805221 14.0224C1.15749 14.4044 1.63074 14.6539 2.16754 14.9525L3.13982 13.2048ZM0.00945163 11.2918C0.0108458 11.9057 -0.000232697 12.4407 0.163534 12.934L2.06167 12.3039C2.02319 12.188 2.01116 12.0398 2.00945 11.2873L0.00945163 11.2918ZM2.27558 12.6666C2.17927 12.5622 2.10638 12.4385 2.06167 12.3039L0.163534 12.934C0.297764 13.3384 0.516554 13.7093 0.805221 14.0224L2.27558 12.6666ZM4.73962 14.6308C4.70822 14.576 4.68113 14.5284 4.65194 14.4812L2.95131 15.5338C2.95828 15.545 2.96589 15.558 3.00386 15.6244L4.73962 14.6308ZM2.52588 15.1519C2.59339 15.1894 2.60604 15.1966 2.61718 15.2033L3.6489 13.49C3.60123 13.4613 3.55262 13.4344 3.49817 13.4041L2.52588 15.1519ZM4.65194 14.4812C4.40131 14.0763 4.05787 13.7362 3.6489 13.49L2.61718 15.2033C2.75285 15.285 2.86737 15.3981 2.95131 15.5338L4.65194 14.4812ZM5.16921 16.3017C5.17028 16.2382 5.17126 16.1848 5.17033 16.1303L3.17062 16.1644C3.17085 16.1778 3.17075 16.1936 3.16949 16.2679L5.16921 16.3017ZM3.00386 15.6244C3.0436 15.6938 3.04927 15.7037 3.05495 15.7144L4.82342 14.7803C4.79741 14.7311 4.76842 14.6811 4.73962 14.6308L3.00386 15.6244ZM5.17033 16.1303C5.1623 15.6592 5.04338 15.1968 4.82342 14.7803L3.05495 15.7144C3.12834 15.8534 3.16794 16.0075 3.17062 16.1644L5.17033 16.1303ZM6.26332 18.6525C5.60968 18.2759 5.48608 18.1905 5.40421 18.0988L3.91194 19.4303C4.25912 19.8194 4.72934 20.0769 5.26475 20.3854L6.26332 18.6525ZM3.16261 16.6755C3.1522 17.2925 3.13102 17.829 3.28647 18.327L5.19561 17.731C5.15903 17.6138 5.14958 17.4644 5.16233 16.7092L3.16261 16.6755ZM5.40421 18.0988C5.30905 17.9921 5.23796 17.8667 5.19561 17.731L3.28647 18.327C3.41401 18.7355 3.62753 19.1116 3.91194 19.4303L5.40421 18.0988ZM8.98566 18.9183C8.33922 19.3053 8.2059 19.3714 8.0865 19.3982L8.52457 21.3497C9.03238 21.2357 9.48545 20.9501 10.0131 20.6342L8.98566 18.9183ZM5.75845 20.6699C6.29236 20.9776 6.75015 21.2548 7.25952 21.3602L7.66486 19.4017C7.54475 19.3769 7.40882 19.3126 6.75702 18.937L5.75845 20.6699ZM8.0865 19.3982C7.94786 19.4293 7.80417 19.4306 7.66486 19.4017L7.25952 21.3602C7.6771 21.4466 8.10832 21.4431 8.52457 21.3497L8.0865 19.3982ZM11.0029 18.2465C10.9438 18.2465 10.8926 18.2464 10.8409 18.248L10.905 20.247C10.9173 20.2466 10.9314 20.2465 11.0029 20.2465V18.2465ZM10.3669 20.4223C10.4249 20.3876 10.4395 20.3791 10.4513 20.3726L9.47946 18.6246C9.43516 18.6492 9.39348 18.6741 9.33949 18.7064L10.3669 20.4223ZM10.8408 18.248C10.3632 18.2634 9.89666 18.3926 9.47946 18.6246L10.4513 20.3726C10.5907 20.2951 10.7461 20.2521 10.905 20.247L10.8408 18.248ZM12.6699 18.7083C12.6181 18.6773 12.5748 18.6512 12.5297 18.6261L11.556 20.373C11.567 20.3792 11.5801 20.3868 11.6404 20.4231L12.6699 18.7083ZM11.0029 20.2465C11.0745 20.2465 11.089 20.2466 11.1014 20.247L11.1657 18.248C11.1137 18.2464 11.062 18.2465 11.0029 18.2465V20.2465ZM12.5297 18.6261C12.1117 18.3931 11.6441 18.2634 11.1657 18.248L11.1014 20.247C11.2608 20.2521 11.4166 20.2953 11.556 20.373L12.5297 18.6261ZM15.2625 18.9387C14.6085 19.3183 14.4725 19.3832 14.3521 19.4083L14.761 21.3661C15.2723 21.2593 15.7315 20.979 16.2665 20.6685L15.2625 18.9387ZM11.9965 20.6368C12.5266 20.9551 12.9813 21.2422 13.4911 21.3566L13.929 19.4051C13.809 19.3782 13.6746 19.3115 13.0259 18.9221L11.9965 20.6368ZM14.3521 19.4083C14.2125 19.4375 14.0685 19.4364 13.929 19.4051L13.4911 21.3566C13.9087 21.4503 14.3415 21.4537 14.761 21.3661L14.3521 19.4083ZM16.8455 16.7159C16.8582 17.4677 16.8486 17.6173 16.8121 17.7343L18.7218 18.3286C18.8763 17.8322 18.8556 17.298 18.8453 16.6823L16.8455 16.7159ZM16.7542 20.3854C17.2866 20.0764 17.7546 19.8184 18.0999 19.4297L16.6048 18.1014C16.5234 18.193 16.4007 18.2781 15.7502 18.6557L16.7542 20.3854ZM16.8121 17.7343C16.77 17.8698 16.6993 17.995 16.6048 18.1014L18.0999 19.4297C18.3829 19.1112 18.5951 18.7359 18.7218 18.3286L16.8121 17.7343ZM17.2714 14.6192C17.2423 14.6696 17.2169 14.7133 17.1928 14.7583L18.9554 15.7034C18.9611 15.6927 18.968 15.6805 19.0032 15.6196L17.2714 14.6192ZM18.8381 16.2576C18.8369 16.1833 18.8367 16.1726 18.8368 16.1612L16.8371 16.1316C16.8363 16.1835 16.8375 16.237 16.8384 16.2913L18.8381 16.2576ZM17.1928 14.7583C16.9661 15.1811 16.8442 15.6521 16.8371 16.1316L18.8368 16.1612C18.8392 16.0012 18.8799 15.8442 18.9554 15.7034L17.1928 14.7583ZM18.5044 13.4081C18.4543 13.4359 18.4093 13.4607 18.3652 13.487L19.3895 15.2048C19.3997 15.1986 19.4114 15.1921 19.4738 15.1575L18.5044 13.4081ZM19.0032 15.6196C19.0355 15.5638 19.0448 15.5483 19.0522 15.5363L17.3529 14.4816C17.3269 14.5234 17.3035 14.5637 17.2714 14.6192L19.0032 15.6196ZM18.3652 13.487C17.9527 13.7329 17.6058 14.0741 17.3529 14.4816L19.0522 15.5363C19.1367 15.4001 19.2523 15.2865 19.3895 15.2048L18.3652 13.487ZM19.9997 11.2785C20.0014 12.0344 19.9894 12.185 19.9508 12.3021L21.8507 12.9271C22.0139 12.4308 22.0011 11.8936 21.9997 11.274L19.9997 11.2785ZM19.8354 14.9571C20.3767 14.6571 20.8527 14.407 21.207 14.0227L19.7363 12.6673C19.6529 12.7578 19.5278 12.841 18.866 13.2078L19.8354 14.9571ZM19.9508 12.3021C19.9062 12.4378 19.833 12.5623 19.7363 12.6673L21.207 14.0227C21.4974 13.7076 21.7168 13.334 21.8507 12.9271L19.9508 12.3021ZM18.8677 8.79883C19.5247 9.16428 19.6489 9.24704 19.7318 9.33698L21.2021 7.98123C20.8499 7.59924 20.3771 7.34986 19.84 7.05107L18.8677 8.79883ZM21.9984 10.7119C21.997 10.0971 22.0077 9.56271 21.844 9.06961L19.9458 9.69974C19.9844 9.81588 19.9967 9.9648 19.9984 10.7164L21.9984 10.7119ZM19.7318 9.33698C19.8283 9.44162 19.9012 9.56533 19.9458 9.69974L21.844 9.06961C21.7097 8.66503 21.4906 8.29412 21.2021 7.98123L19.7318 9.33698ZM19.4738 6.84735C19.4124 6.8132 19.3995 6.80586 19.3888 6.7994L18.361 8.51512C18.4051 8.54156 18.4492 8.56597 18.5015 8.5951L19.4738 6.84735ZM17.2718 7.38531C17.305 7.44274 17.3284 7.48271 17.3544 7.52451L19.0533 6.46918C19.0454 6.45655 19.0356 6.44028 19.0037 6.38493L17.2718 7.38531ZM19.3888 6.7994C19.2524 6.7177 19.1374 6.60453 19.0533 6.46918L17.3544 7.52451C17.6062 7.92996 17.9512 8.26965 18.361 8.51512L19.3888 6.7994Z" fill="white"/>
</svg>
