<svg width="64" height="66" viewBox="0 0 64 66" fill="none" xmlns="http://www.w3.org/2000/svg">
<path fill-rule="evenodd" clip-rule="evenodd" d="M42.0976 7.64196C38.6464 6.27174 34.8831 5.51855 30.9439 5.51855C14.2424 5.51855 0.703125 19.0578 0.703125 35.7593C0.703125 52.4608 14.2424 66 30.9439 66C47.6454 66 61.1846 52.4608 61.1846 35.7593C61.1846 31.3477 60.2399 27.1567 58.5418 23.3776C57.8788 23.4706 57.2014 23.5186 56.5127 23.5186C48.5148 23.5186 42.0312 17.035 42.0312 9.03715C42.0312 8.5665 42.0537 8.1011 42.0976 7.64196ZM30.9421 14.8887C29.766 14.8887 28.8125 15.8421 28.8125 17.0183V37.4627C28.8125 38.6389 29.766 39.5924 30.9421 39.5924L30.9639 39.5923H44.5733C45.7495 39.5923 46.7029 38.6388 46.7029 37.4626C46.7029 36.2865 45.7495 35.333 44.5733 35.333H33.0718V17.0183C33.0718 15.8421 32.1183 14.8887 30.9421 14.8887Z" fill="white"/>
<path d="M49.0592 17C48.6318 17 48.3438 16.925 48.1951 16.775C48.065 16.625 48 16.3583 48 15.975C48 15.6083 48.0465 15.3083 48.1394 15.075C48.2323 14.8417 48.4274 14.5417 48.7247 14.175L57.8955 3.05H49.5331C49.0871 3.05 48.7619 2.96667 48.5575 2.8C48.3717 2.61667 48.2787 2.34167 48.2787 1.975V1.05C48.2787 0.683333 48.3717 0.416666 48.5575 0.25C48.7619 0.0833333 49.0871 0 49.5331 0H62.8571C63.2846 0 63.5726 0.0833333 63.7213 0.25C63.8699 0.4 63.9443 0.658333 63.9443 1.025C63.9443 1.40833 63.8978 1.70833 63.8049 1.925C63.712 2.14167 63.5076 2.45 63.1916 2.85L54.0767 13.975H62.7456C63.1916 13.975 63.5076 14.0583 63.6934 14.225C63.8978 14.3917 64 14.6667 64 15.05V15.95C64 16.3167 63.8978 16.5833 63.6934 16.75C63.5076 16.9167 63.1916 17 62.7456 17H49.0592Z" fill="white"/>
</svg>
