<svg width="16" height="16" viewBox="0 0 16 16" fill="none" xmlns="http://www.w3.org/2000/svg">
<path d="M3.33203 5.46672V10.5334C3.33203 11.2801 3.33203 11.653 3.47736 11.9382C3.60519 12.1891 3.80901 12.3936 4.0599 12.5214C4.34483 12.6666 4.71803 12.6666 5.4633 12.6666H10.5344C11.2797 12.6666 11.6523 12.6666 11.9373 12.5214C12.1882 12.3936 12.3924 12.1891 12.5202 11.9382C12.6654 11.6532 12.6654 11.2806 12.6654 10.5353V5.46453C12.6654 4.71925 12.6654 4.34605 12.5202 4.06112C12.3924 3.81023 12.1882 3.60641 11.9373 3.47858C11.6521 3.33325 11.2789 3.33325 10.5322 3.33325H5.46549C4.71876 3.33325 4.34511 3.33325 4.0599 3.47858C3.80901 3.60641 3.60519 3.81023 3.47736 4.06112C3.33203 4.34633 3.33203 4.71998 3.33203 5.46672Z" stroke="#FFE27B" stroke-width="1.33333" stroke-linecap="round" stroke-linejoin="round"/>
</svg>
