<svg width="18" height="18" viewBox="0 0 18 18" fill="none" xmlns="http://www.w3.org/2000/svg">
<path d="M5.70916 1.12481C5.37166 1.26543 4.89354 1.74356 4.66854 2.19356C4.44354 2.64356 3.88104 3.17793 3.43104 3.34668C1.20916 4.27481 0.252914 6.69356 1.37791 8.57793C1.82791 9.33731 1.91229 9.73106 1.68729 10.1248C0.956039 11.5029 1.79979 13.8092 3.31854 14.6248C3.79666 14.9061 4.55604 15.4967 5.03416 16.0029C5.96229 16.9873 6.94666 17.1279 8.15604 16.4248C8.88729 15.9748 8.97166 15.9748 9.59041 16.4248C10.6592 17.1561 11.6435 16.9873 13.0498 15.8061C13.7248 15.2436 14.6248 14.5404 15.0467 14.2592C16.256 13.4154 16.7623 12.0092 16.3967 10.6311C16.1435 9.64668 16.1717 9.36543 16.6217 8.60606C17.7185 6.80606 16.9029 4.58418 14.7654 3.54356C14.1467 3.23418 13.5842 2.86856 13.5279 2.69981C13.4717 2.53106 13.0498 2.05293 12.6279 1.63106C11.7279 0.731056 10.5748 0.618557 9.59041 1.29356C8.97166 1.74356 8.88729 1.74356 8.15604 1.29356C7.28416 0.787306 6.63729 0.759182 5.70916 1.12481ZM8.07166 2.81231C8.32479 3.29043 8.43729 5.11856 8.43729 8.85918C8.43729 14.5967 8.24041 15.5248 7.05916 15.6936C6.35604 15.8061 5.34354 15.0467 5.34354 14.4279C5.34354 14.2311 5.09041 14.0623 4.75291 14.0623C3.90916 14.0623 2.53104 12.5717 2.53104 11.6717C2.53104 10.5467 2.98104 9.87168 3.65604 10.0404C4.02166 10.1529 4.21854 10.0404 4.21854 9.75918C4.21854 9.53418 3.90916 9.25293 3.51541 9.16856C2.75604 8.97168 1.96854 7.70606 1.96854 6.66543C1.96854 5.20293 4.24666 3.57168 4.83729 4.61231C5.25916 5.39981 5.68104 5.11856 5.48416 4.21856C5.06229 2.27793 7.22791 1.12481 8.07166 2.81231ZM11.9248 2.41856C12.1779 2.64356 12.3748 3.09356 12.3748 3.40293C12.3748 3.96543 12.4873 4.04981 13.8654 4.35918C15.6092 4.72481 16.4529 6.38418 15.7217 7.98731C15.4123 8.63418 15.2717 8.69043 14.1748 8.52168C12.7404 8.32481 12.5435 8.60606 13.781 9.05606C14.8779 9.42168 15.581 10.7154 15.356 11.9529C15.1592 13.0217 14.5123 13.6686 13.4154 13.9217C12.9373 14.0623 12.5154 14.3998 12.3748 14.7936C12.0654 15.5811 10.9685 15.9186 10.1529 15.4967C9.33729 15.0467 9.22479 14.0342 9.33729 8.12793C9.42166 2.53106 9.56229 1.96856 10.856 1.96856C11.1935 1.96856 11.6998 2.16543 11.9248 2.41856Z" fill="currentColor"/>
</svg>
