<svg width="14" height="14" viewBox="0 0 14 14" fill="#A1A1A2" xmlns="http://www.w3.org/2000/svg">
<path d="M6.99594 13.6654C3.31491 13.6617 0.333487 10.6753 0.335939 6.99426C0.338394 3.31323 3.3238 0.330806 7.00483 0.332032C10.6859 0.333258 13.6693 3.31766 13.6693 6.9987C13.6671 10.6823 10.6795 13.6668 6.99594 13.6654ZM1.66927 7.11336C1.70082 10.0475 4.09668 12.4051 7.03096 12.3894C9.96525 12.3735 12.3356 9.99036 12.3356 7.05603C12.3356 4.1217 9.96525 1.73854 7.03096 1.72269C4.09668 1.707 1.70082 4.06453 1.66927 6.99869V7.11336ZM7.66927 10.332H6.33594V8.9987H7.66927V10.332ZM7.66927 7.66536H6.33594V3.66536H7.66927V7.66536Z" fill="#A1A1A2"/>
</svg>
